<svg version="1.1" id="Layer_1" xmlns="http://www.w3.org/2000/svg" xmlns:xlink="http://www.w3.org/1999/xlink" x="0px" y="0px"
	 width="100%" viewBox="0 0 512 512" enable-background="new 0 0 512 512" xml:space="preserve">
<path fill="#000000" opacity="1.000000" stroke="none" 
	d="
M513.000000,204.000000 
	C513.000000,307.308228 513.000000,410.116455 513.000000,512.962341 
	C342.400085,512.962341 171.800186,512.962341 1.100134,512.962341 
	C1.100134,342.441803 1.100134,171.883514 1.100134,1.162619 
	C171.666534,1.162619 342.333252,1.162619 513.000000,1.162619 
	C513.000000,68.533112 513.000000,136.016556 513.000000,204.000000 
M369.145233,82.009926 
	C366.095795,81.726555 363.046356,81.443184 359.070770,81.008675 
	C348.714233,81.061249 338.357727,81.113823 327.339661,81.012283 
	C326.892761,81.063637 326.445831,81.114990 325.257202,81.014053 
	C324.505188,81.064774 323.753204,81.115494 322.258575,81.011177 
	C321.505371,81.062820 320.752167,81.114464 319.088562,81.013741 
	C315.392761,81.064552 311.696991,81.115364 307.153839,81.011200 
	C305.435242,81.062904 303.716675,81.114609 301.072052,81.013420 
	C294.263184,81.009247 287.454254,80.989662 280.645416,81.003685 
	C257.429718,81.051506 234.214035,81.111160 210.072174,81.013824 
	C187.936005,81.341095 165.790405,81.399323 143.669937,82.174606 
	C137.739914,82.382439 131.886505,84.776459 125.259766,86.223923 
	C113.447815,91.187355 103.161003,98.118912 95.258026,109.225510 
	C88.219582,119.446289 83.388680,130.523300 82.008781,143.660568 
	C82.060783,144.108032 82.112785,144.555511 82.014442,145.783295 
	C81.724495,147.521286 81.434547,149.259277 80.992943,151.660110 
	C81.043854,152.107666 81.094765,152.555206 81.001228,153.662964 
	C81.052826,154.107620 81.104424,154.552277 81.006958,155.845535 
	C81.055290,157.564636 81.103622,159.283737 81.004105,161.929459 
	C81.058029,199.951920 81.111954,237.974396 81.009148,276.922943 
	C81.060371,301.947540 81.111595,326.972137 81.007339,352.905853 
	C81.393044,357.936218 81.778740,362.966583 82.009796,368.844604 
	C83.055824,373.378113 84.101852,377.911652 85.022285,383.026184 
	C85.068039,383.218994 85.113800,383.411804 85.016685,384.379303 
	C86.328415,387.289459 87.640137,390.199646 89.011536,393.837006 
	C90.555801,396.496429 92.100067,399.155853 93.928177,402.355164 
	C94.912857,403.585815 95.897530,404.816498 97.141716,406.671936 
	C103.734978,412.159515 110.328239,417.647125 116.949440,423.053192 
	C116.949440,423.053192 116.864662,423.068634 117.046036,423.573975 
	C117.354370,423.667786 117.662704,423.761597 118.645325,424.147552 
	C122.540222,425.768463 126.321548,427.786774 130.350601,428.938293 
	C144.298981,432.924896 158.625671,433.346680 173.940491,432.967926 
	C186.903717,432.976196 199.866959,433.002686 212.830170,432.989380 
	C252.215714,432.948975 291.601257,432.893219 331.913147,433.006775 
	C344.658691,432.671967 357.483093,433.076904 370.120636,431.729370 
	C377.902588,430.899567 385.399292,427.394196 393.686798,424.811829 
	C410.556976,416.345581 421.842926,403.076782 428.286560,385.369415 
	C432.566711,373.607330 432.688202,361.259857 432.791748,349.207672 
	C433.293457,290.806488 433.070465,232.398651 432.983704,173.993332 
	C432.969482,164.419296 432.519653,154.835861 431.927948,145.278015 
	C431.712860,141.803970 430.495728,138.391953 429.877960,134.316116 
	C429.602386,133.829315 429.326843,133.342514 429.020050,132.138474 
	C428.598145,131.079056 428.176239,130.019638 427.881317,128.333603 
	C427.601593,127.848839 427.321838,127.364075 426.996918,126.423233 
	C426.996918,126.423233 426.836456,125.993950 426.987671,125.255043 
	C423.133789,117.090828 419.562408,108.738358 411.860168,102.335930 
	C406.081726,95.880898 399.316345,90.879059 390.318298,87.850998 
	C388.249969,87.218796 386.181671,86.586586 383.793701,85.249077 
	C379.195007,84.219330 374.596283,83.189590 369.145233,82.009926 
z"/>
<path fill="#EDEDEC" opacity="1.000000" stroke="none" 
	d="
M85.147881,382.445160 
	C84.101852,377.911652 83.055824,373.378113 82.437782,368.338898 
	C83.418694,365.242157 84.136848,362.672974 84.483818,360.054657 
	C84.944275,356.580017 85.114983,353.066986 85.410194,349.570435 
	C85.907997,349.604950 86.405807,349.639496 86.903610,349.674011 
	C87.269440,353.252441 87.719162,356.824768 87.978607,360.410889 
	C88.265297,364.373322 89.453026,367.728699 93.737396,370.199432 
	C94.251579,368.646088 94.876541,367.517181 94.973381,366.344666 
	C95.707573,357.455566 96.458954,348.564819 96.963348,339.660889 
	C97.370720,332.469482 102.898254,325.966858 108.948090,327.458740 
	C113.637672,328.615204 118.027168,329.661682 122.945992,329.760040 
	C126.763680,329.836395 128.599167,328.661438 128.764587,325.580872 
	C128.950119,322.125641 130.824982,321.134430 133.509415,320.221344 
	C135.021362,319.707062 136.436478,318.762848 137.738098,317.799927 
	C144.446121,312.837646 150.717056,307.095795 159.695541,306.345032 
	C161.690079,309.151642 160.554016,315.237213 166.673325,312.435638 
	C178.317886,307.104370 190.535767,302.675110 201.370743,296.010193 
	C216.498047,286.704956 230.663254,275.814148 245.068771,265.365540 
	C253.151566,259.502930 258.638275,259.432190 266.023682,265.967773 
	C267.770050,267.513214 269.468567,269.112518 271.203033,270.671539 
	C284.484283,282.609589 296.104034,282.963440 309.878540,271.383270 
	C322.728455,260.580414 335.085632,249.183716 348.084717,238.568878 
	C356.510376,231.688614 353.646545,230.096207 362.288025,238.769684 
	C362.971985,239.456146 363.766205,240.032761 364.971527,241.050980 
	C367.324402,232.393417 369.575958,224.188416 371.774841,215.969299 
	C372.432983,213.509232 372.943878,211.009781 373.637878,208.032211 
	C362.484344,210.772217 352.070557,213.330490 340.998474,216.050491 
	C344.073761,219.325256 346.536835,221.948044 349.275940,224.864792 
	C346.139008,227.779648 343.336731,230.585739 340.325745,233.146408 
	C327.261169,244.256943 314.332733,255.541718 300.954773,266.264069 
	C293.514557,272.227356 287.589355,271.729156 280.149445,265.726471 
	C276.535278,262.810516 273.284821,259.443787 270.018982,255.932495 
	C269.657410,254.178787 269.347412,251.713013 268.597412,251.571014 
	C266.494965,251.172913 263.839111,247.664932 261.662964,251.983276 
	C260.886017,251.871597 260.449921,251.751175 260.005249,251.463409 
	C259.996674,251.296051 259.964020,250.962479 259.909546,250.619843 
	C258.404480,249.301788 256.953857,248.326370 255.516174,247.359665 
	C256.595215,240.464005 259.200806,238.181625 267.481659,238.485855 
	C272.444855,238.668198 272.486206,243.159668 273.080658,246.951294 
	C273.652771,250.600327 276.110260,252.242828 280.009338,252.284653 
	C280.605164,253.305527 280.994049,254.038376 281.376099,254.774765 
	C286.543060,264.733093 290.616852,265.729584 299.531647,258.624298 
	C307.188019,252.521973 314.567291,246.068741 322.000061,239.690262 
	C327.728668,234.774170 333.350189,229.733322 339.023926,224.743942 
	C335.135864,220.359207 331.704712,216.489792 327.778839,212.062408 
	C339.037537,209.216919 349.347443,206.744415 359.560944,203.923004 
	C361.729919,203.323837 363.547424,201.452515 365.704956,200.512238 
	C367.162262,200.403534 368.711609,200.265259 369.673615,199.441254 
	C373.671509,196.016846 377.552979,192.448853 381.351929,188.803085 
	C383.195160,187.034210 385.219635,185.213394 386.359619,183.002365 
	C388.783539,178.300995 391.527100,174.293716 397.008270,172.781815 
	C398.469543,172.378754 399.707581,171.035248 400.952972,170.008194 
	C403.415802,167.977142 405.934814,165.989960 408.202454,163.753311 
	C410.587677,161.400696 413.816772,159.101990 414.666534,156.192490 
	C415.786346,152.358444 416.449219,147.082260 414.646515,143.966095 
	C410.434814,136.685837 409.169250,128.740997 406.514771,121.131973 
	C403.847046,113.485069 397.927307,106.738258 392.524628,100.367027 
	C389.238220,96.491478 384.233063,94.073395 379.750000,91.000328 
	C379.333344,90.999931 379.166656,90.999809 378.945190,90.664108 
	C378.016632,89.166016 377.142822,88.003502 376.067230,86.572495 
	C379.186615,86.332863 381.649994,86.143623 384.113342,85.954384 
	C386.181671,86.586586 388.249969,87.218796 390.648132,88.357086 
	C390.098145,90.064720 389.218323,91.266273 388.263580,92.570152 
	C389.013763,93.389420 389.738739,94.075661 390.341736,94.856133 
	C395.945129,102.108734 402.042603,109.049889 406.942200,116.752220 
	C410.445160,122.259003 411.805481,129.095856 415.074402,134.792679 
	C419.245941,142.062531 417.840790,149.625290 417.752289,157.176498 
	C417.659698,165.079529 417.293732,172.979156 417.176910,180.882187 
	C416.972626,194.701569 416.869690,208.522430 416.707672,222.342484 
	C416.703979,222.658554 416.434967,222.965775 416.403961,223.288116 
	C415.623138,231.399506 413.727509,239.611908 414.430450,247.594971 
	C415.043823,254.560944 414.458038,260.687622 411.555389,266.858276 
	C410.843536,268.371521 410.850403,270.210297 410.408539,271.867859 
	C410.147034,272.848907 409.712830,274.527985 409.252716,274.563812 
	C408.149017,274.649841 406.836609,274.162109 405.891113,273.501404 
	C405.145508,272.980347 405.005829,271.390320 404.270721,271.099243 
	C402.842712,270.533844 400.899902,269.926575 399.696381,270.480194 
	C398.234558,271.152588 397.175110,272.920685 396.268646,274.413330 
	C396.059814,274.757202 397.213776,276.603729 397.686005,276.581818 
	C402.452850,276.360687 403.651031,280.105499 405.995148,283.079315 
	C409.930878,288.072357 410.426086,288.000854 405.561737,291.820801 
	C402.109039,294.532135 398.407104,297.905487 394.383026,298.654236 
	C389.677338,299.529846 385.453705,300.265137 381.702698,303.470917 
	C379.597687,305.269958 376.850189,307.492554 374.393005,307.491516 
	C365.825012,307.487976 360.606781,314.812469 352.714661,316.473846 
	C347.583191,317.554077 346.704407,318.198120 347.125336,312.822083 
	C347.286926,310.758728 348.476593,308.483521 349.857910,306.869934 
	C352.597717,303.669403 357.232086,301.339569 358.422546,297.763977 
	C359.753967,293.765106 362.320923,294.060913 364.845642,293.015656 
	C367.222961,292.031433 369.510315,290.825256 371.816315,289.674805 
	C374.875854,288.148285 377.865295,286.471130 380.976685,285.061371 
	C384.258240,283.574554 387.812500,282.624908 390.947815,280.896667 
	C394.697510,278.829742 392.822906,275.786377 391.520691,273.096466 
	C390.007050,269.970001 387.983398,270.878052 385.862732,272.474823 
	C380.772186,276.307709 375.237122,278.884064 368.838165,280.095398 
	C366.138489,280.606445 362.767303,283.004913 361.660950,285.436890 
	C358.811249,291.701172 353.498810,294.583618 347.926300,297.091339 
	C341.493744,299.986145 340.804413,301.284210 341.624329,308.944397 
	C341.863098,311.174988 339.882355,313.643127 338.854004,315.537170 
	C338.789001,296.115479 338.789001,277.159027 338.789001,258.202545 
	C338.276306,258.077972 337.763580,257.953400 337.250885,257.828796 
	C333.617493,260.923218 330.157715,264.255157 326.315033,267.063171 
	C318.022736,273.122620 309.729675,279.229431 301.009094,284.625519 
	C298.304962,286.298767 297.222656,287.534271 297.254211,290.555115 
	C297.353180,300.036743 297.204346,309.520996 296.792755,318.951843 
	C294.302582,318.381531 294.046417,311.746490 290.212860,316.898071 
	C286.328796,322.117523 282.635925,327.479187 278.828094,332.756012 
	C278.681946,332.958557 278.210876,332.926697 277.828979,332.538391 
	C277.766754,317.151062 277.766754,302.229462 277.766754,287.314758 
	C263.534851,287.314758 250.141693,287.314758 236.696152,287.314758 
	C236.696152,311.041962 236.696152,334.397003 236.696152,358.456329 
	C248.094604,358.456329 259.064941,358.456329 269.994019,358.852478 
	C268.548157,360.237183 267.231506,361.890228 265.722473,362.089996 
	C261.148865,362.695404 256.465057,362.472900 251.893478,363.087860 
	C248.522537,363.541290 244.882568,364.165863 242.039230,365.854004 
	C237.928879,368.294434 234.500473,371.859283 230.634644,374.748444 
	C229.228165,375.799591 227.467148,376.532715 225.755447,376.991669 
	C218.904373,378.828644 212.009125,380.500946 206.661316,381.848389 
	C202.790115,381.098083 200.078018,379.917816 197.570206,380.255341 
	C194.568420,380.659332 191.671127,382.210052 188.851456,383.527191 
	C180.633026,387.366150 174.292267,394.460144 165.045197,396.770538 
	C162.626541,397.374878 160.455475,400.869080 159.118301,403.514984 
	C156.164780,409.359192 145.843353,413.848755 139.746765,411.318756 
	C134.663788,409.209290 135.564072,406.014862 138.512985,402.194641 
	C136.841293,402.586426 135.483994,403.066101 134.714447,404.019958 
	C130.559265,409.170135 125.294388,409.654907 120.572144,405.032135 
	C118.050423,402.563599 115.714691,399.905090 112.973595,396.990509 
	C115.215797,396.128571 117.412086,395.284271 119.602242,394.442352 
	C118.126381,390.290771 114.034546,387.531891 111.499588,389.555115 
	C106.335899,393.676422 103.173737,389.824554 99.925865,387.243134 
	C97.113136,385.007599 95.038223,381.862762 92.507599,379.245148 
	C91.257339,377.951874 89.714867,376.941040 88.353615,375.841980 
	C87.049919,378.527344 86.098900,380.486237 85.147881,382.445160 
M179.681396,358.090668 
	C191.757782,358.090668 203.834167,358.090668 215.999985,358.090668 
	C215.999985,344.418335 215.999985,331.522339 215.999985,318.321350 
	C202.470947,318.321350 189.258347,318.321350 175.754776,318.321350 
	C175.754776,331.116791 175.712418,343.687775 175.881073,356.255890 
	C175.889420,356.878387 177.734985,357.476227 179.681396,358.090668 
M232.929016,351.437622 
	C232.869766,348.903168 232.012421,347.587952 229.239639,348.867401 
	C228.372696,349.267426 227.372940,349.618774 226.441467,349.600922 
	C220.434280,349.486176 218.961151,351.551880 221.083572,357.915009 
	C225.011368,355.988403 228.892838,354.084534 232.929016,351.437622 
z"/>
<path fill="#E9E9E9" opacity="1.000000" stroke="none" 
	d="
M338.919037,316.002411 
	C339.882355,313.643127 341.863098,311.174988 341.624329,308.944397 
	C340.804413,301.284210 341.493744,299.986145 347.926300,297.091339 
	C353.498810,294.583618 358.811249,291.701172 361.660950,285.436890 
	C362.767303,283.004913 366.138489,280.606445 368.838165,280.095398 
	C375.237122,278.884064 380.772186,276.307709 385.862732,272.474823 
	C387.983398,270.878052 390.007050,269.970001 391.520691,273.096466 
	C392.822906,275.786377 394.697510,278.829742 390.947815,280.896667 
	C387.812500,282.624908 384.258240,283.574554 380.976685,285.061371 
	C377.865295,286.471130 374.875854,288.148285 371.816315,289.674805 
	C369.510315,290.825256 367.222961,292.031433 364.845642,293.015656 
	C362.320923,294.060913 359.753967,293.765106 358.422546,297.763977 
	C357.232086,301.339569 352.597717,303.669403 349.857910,306.869934 
	C348.476593,308.483521 347.286926,310.758728 347.125336,312.822083 
	C346.704407,318.198120 347.583191,317.554077 352.714661,316.473846 
	C360.606781,314.812469 365.825012,307.487976 374.393005,307.491516 
	C376.850189,307.492554 379.597687,305.269958 381.702698,303.470917 
	C385.453705,300.265137 389.677338,299.529846 394.383026,298.654236 
	C398.407104,297.905487 402.109039,294.532135 405.561737,291.820801 
	C410.426086,288.000854 409.930878,288.072357 405.995148,283.079315 
	C403.651031,280.105499 402.452850,276.360687 397.686005,276.581818 
	C397.213776,276.603729 396.059814,274.757202 396.268646,274.413330 
	C397.175110,272.920685 398.234558,271.152588 399.696381,270.480194 
	C400.899902,269.926575 402.842712,270.533844 404.270721,271.099243 
	C405.005829,271.390320 405.145508,272.980347 405.891113,273.501404 
	C406.836609,274.162109 408.149017,274.649841 409.252716,274.563812 
	C409.712830,274.527985 410.147034,272.848907 410.408539,271.867859 
	C410.850403,270.210297 410.843536,268.371521 411.555389,266.858276 
	C414.458038,260.687622 415.043823,254.560944 414.430450,247.594971 
	C413.727509,239.611908 415.623138,231.399506 416.403961,223.288116 
	C416.434967,222.965775 416.703979,222.658554 416.707672,222.342484 
	C416.869690,208.522430 416.972626,194.701569 417.176910,180.882187 
	C417.293732,172.979156 417.659698,165.079529 417.752289,157.176498 
	C417.840790,149.625290 419.245941,142.062531 415.074402,134.792679 
	C411.805481,129.095856 410.445160,122.259003 406.942200,116.752220 
	C402.042603,109.049889 395.945129,102.108734 390.341736,94.856133 
	C389.738739,94.075661 389.013763,93.389420 388.263580,92.570152 
	C389.218323,91.266273 390.098145,90.064720 390.987183,88.514618 
	C399.316345,90.879059 406.081726,95.880898 411.587433,102.661484 
	C406.298065,103.284744 407.626953,106.084854 409.206940,108.687851 
	C412.077759,113.417564 415.098145,118.057808 418.132019,122.685616 
	C418.520325,123.277916 419.362274,123.572807 419.998596,124.354874 
	C420.338715,125.800613 420.674316,126.896935 421.051086,128.312317 
	C421.726105,129.089767 422.360016,129.548157 422.994965,130.427750 
	C424.315186,138.235962 425.634338,145.622971 426.578430,153.014343 
	C425.249725,153.726089 423.528778,154.367538 423.461487,155.151031 
	C422.815033,162.677048 422.109192,170.226028 422.086243,177.770432 
	C422.058105,187.048370 422.763367,196.326080 422.968323,205.607956 
	C423.128082,212.844498 422.900360,220.089478 423.052246,227.326340 
	C423.142273,231.616119 423.851807,235.894775 423.904633,240.183090 
	C424.050201,251.999130 423.957916,263.818115 424.107605,275.634064 
	C424.117706,276.434418 425.356873,277.219208 426.193787,278.392395 
	C426.577148,280.400848 426.975677,282.028015 426.977417,283.655548 
	C427.001495,306.434326 426.971466,329.213104 426.567810,351.981140 
	C425.120819,349.644806 423.229370,347.348724 423.145630,344.988495 
	C422.799316,335.226837 423.122101,325.443878 422.971191,315.672272 
	C422.748016,301.219452 422.389648,286.767822 421.932556,272.320648 
	C421.865295,270.194855 420.938263,268.096222 420.408997,265.985046 
	C419.665527,265.984406 418.922028,265.983765 418.178528,265.983154 
	C417.485596,271.167755 415.497528,276.584686 416.376923,281.487274 
	C418.059753,290.869385 417.695038,299.816559 414.831665,308.745483 
	C413.982117,311.394623 413.578888,314.722260 408.927063,313.532288 
	C407.586792,313.189453 405.549866,315.569916 403.832306,316.701782 
	C404.035583,317.233124 404.238831,317.764435 404.442078,318.295746 
	C406.151001,318.525513 408.076691,319.376221 409.528442,318.869324 
	C413.999298,317.308350 415.276459,319.658264 415.560455,323.272644 
	C416.037842,329.349121 417.761902,335.889130 413.699860,341.139252 
	C410.673187,345.051270 406.345856,347.983887 402.477234,351.208099 
	C399.941498,353.321411 396.058624,354.624329 394.771271,357.262390 
	C392.060577,362.817322 386.872742,363.384247 382.283478,365.354584 
	C381.381622,365.741791 380.246002,365.664062 379.432251,366.155334 
	C378.535004,366.697113 377.415680,367.568512 377.268341,368.443695 
	C377.140350,369.203979 378.179169,370.210724 378.799469,371.035522 
	C379.776581,372.334717 381.895599,373.876648 381.638580,374.773315 
	C381.102753,376.642517 379.643463,379.117462 378.009796,379.652435 
	C370.525696,382.103241 366.480682,388.341583 361.638275,393.689331 
	C361.296173,394.067169 362.186157,396.315521 363.025848,396.814392 
	C364.037933,397.415680 365.642853,396.910828 366.931610,397.175018 
	C370.770966,397.962067 373.278534,397.699524 372.180481,392.584198 
	C371.569275,389.736786 373.527130,388.583740 376.174316,389.254822 
	C383.774811,391.181671 387.295776,388.881470 391.580292,382.340363 
	C394.960297,377.180145 399.952454,372.961487 404.685547,368.850800 
	C407.008453,366.833374 410.118042,367.929565 411.248260,370.864532 
	C412.328522,373.669708 410.732269,375.541229 407.683258,376.060822 
	C405.286346,376.469269 402.916016,377.033722 399.795837,377.682281 
	C403.758087,381.508820 400.754669,383.551086 398.503113,386.097717 
	C395.373962,389.637054 390.454773,392.523621 392.848999,398.671509 
	C393.058563,399.209625 392.461578,400.213440 392.010193,400.834503 
	C385.653809,409.580200 375.987274,411.964294 366.216370,413.913269 
	C363.406189,414.473785 360.389496,413.999237 357.059326,413.999237 
	C357.741943,410.332733 358.268951,407.501923 358.792328,404.690674 
	C352.832397,403.530731 352.986450,403.642059 349.923553,407.880005 
	C348.898163,409.298767 346.984528,410.567566 345.274811,410.917603 
	C336.187164,412.778259 327.070801,414.640656 317.690521,414.015228 
	C316.867432,413.960388 316.019562,414.026733 315.203125,414.159363 
	C302.870087,416.162598 290.535858,416.844604 278.071259,415.148529 
	C274.003479,414.595062 269.776093,415.292084 265.622223,415.276245 
	C258.777618,415.250183 251.888641,415.548553 245.105499,414.856262 
	C240.871017,414.424103 236.988770,414.139618 232.620819,414.773712 
	C223.887589,416.041534 214.923492,415.962433 206.053543,415.985229 
	C194.175507,416.015747 182.294296,415.408966 170.418976,415.527740 
	C166.938095,415.562531 163.472565,417.132446 159.666779,417.998962 
	C158.889236,417.998993 158.444916,417.998901 157.903824,417.606201 
	C152.538025,417.142426 147.269012,417.071198 141.666870,416.999878 
	C140.889542,416.999420 140.445343,416.999115 139.938919,416.651794 
	C136.244629,414.535431 132.638107,412.710876 128.972870,411.013153 
	C125.724075,409.508270 122.005737,408.691925 119.198013,406.618958 
	C109.482277,399.445801 99.179375,392.864471 92.104988,382.667969 
	C91.675865,382.049500 90.836739,381.715485 90.509468,381.480103 
	C88.476646,382.287354 86.818100,382.945984 85.159561,383.604584 
	C85.113800,383.411804 85.068039,383.218994 85.085083,382.735657 
	C86.098900,380.486237 87.049919,378.527344 88.353615,375.841980 
	C89.714867,376.941040 91.257339,377.951874 92.507599,379.245148 
	C95.038223,381.862762 97.113136,385.007599 99.925865,387.243134 
	C103.173737,389.824554 106.335899,393.676422 111.499588,389.555115 
	C114.034546,387.531891 118.126381,390.290771 119.602242,394.442352 
	C117.412086,395.284271 115.215797,396.128571 112.973595,396.990509 
	C115.714691,399.905090 118.050423,402.563599 120.572144,405.032135 
	C125.294388,409.654907 130.559265,409.170135 134.714447,404.019958 
	C135.483994,403.066101 136.841293,402.586426 138.512985,402.194641 
	C135.564072,406.014862 134.663788,409.209290 139.746765,411.318756 
	C145.843353,413.848755 156.164780,409.359192 159.118301,403.514984 
	C160.455475,400.869080 162.626541,397.374878 165.045197,396.770538 
	C174.292267,394.460144 180.633026,387.366150 188.851456,383.527191 
	C191.671127,382.210052 194.568420,380.659332 197.570206,380.255341 
	C200.078018,379.917816 202.790115,381.098083 206.661316,381.848389 
	C212.009125,380.500946 218.904373,378.828644 225.755447,376.991669 
	C227.467148,376.532715 229.228165,375.799591 230.634644,374.748444 
	C234.500473,371.859283 237.928879,368.294434 242.039230,365.854004 
	C244.882568,364.165863 248.522537,363.541290 251.893478,363.087860 
	C256.465057,362.472900 261.148865,362.695404 265.722473,362.089996 
	C267.231506,361.890228 268.548157,360.237183 270.363403,358.830322 
	C271.512329,358.465454 272.250671,358.518860 273.017029,358.922607 
	C273.405090,359.662811 273.765137,360.052673 274.125153,360.442535 
	C274.420288,359.817871 274.715424,359.193176 275.344299,358.423340 
	C276.362701,356.831207 277.585815,355.404236 277.640320,353.933929 
	C277.898651,346.963776 277.838165,339.981842 277.891235,333.004089 
	C278.210876,332.926697 278.681946,332.958557 278.828094,332.756012 
	C282.635925,327.479187 286.328796,322.117523 290.212860,316.898071 
	C294.046417,311.746490 294.302582,318.381531 296.857819,319.416351 
	C297.281616,332.510742 297.281616,345.088226 297.281616,357.730072 
	C311.774872,357.730072 325.001495,357.730072 338.920410,357.730072 
	C338.920410,347.589783 338.920410,337.798431 339.301392,327.927917 
	C341.376373,325.348633 342.533051,322.907837 338.854614,320.581360 
	C338.829224,318.780334 338.874146,317.391357 338.919037,316.002411 
M347.370361,323.615906 
	C347.847961,322.659943 348.325531,321.703979 348.803131,320.748016 
	C348.234344,320.601990 347.665558,320.455963 347.096771,320.309937 
	C346.971252,321.388336 346.845734,322.466766 347.370361,323.615906 
z"/>
<path fill="#F0F0F0" opacity="1.000000" stroke="none" 
	d="
M279.799194,251.998276 
	C276.110260,252.242828 273.652771,250.600327 273.080658,246.951294 
	C272.486206,243.159668 272.444855,238.668198 267.481659,238.485855 
	C259.200806,238.181625 256.595215,240.464005 255.516174,247.359665 
	C256.953857,248.326370 258.404480,249.301788 259.540039,250.580597 
	C257.145935,251.109497 255.066864,251.334991 252.615509,251.687653 
	C249.452652,252.853195 246.330841,253.403076 243.936966,255.026443 
	C238.032425,259.030548 232.615952,263.752777 226.723282,267.776276 
	C216.311951,274.885162 205.692398,281.689056 195.101410,288.241638 
	C194.402695,287.239319 193.762558,286.615936 193.122421,285.992554 
	C192.868164,286.189697 192.613907,286.386841 192.359650,286.583984 
	C192.569260,287.672913 192.778854,288.761871 192.710953,290.067627 
	C187.633194,292.548584 182.832947,294.812683 177.865631,296.844421 
	C177.131973,297.063202 176.565369,297.514313 175.723724,298.187439 
	C171.419006,300.011841 167.389297,301.614258 163.046570,302.996033 
	C161.450226,301.963623 160.166901,301.151886 158.883575,300.340149 
	C159.185440,301.863831 159.487320,303.387512 159.726898,305.184021 
	C159.614777,305.636597 159.564941,305.816345 159.515121,305.996124 
	C150.717056,307.095795 144.446121,312.837646 137.738098,317.799927 
	C136.436478,318.762848 135.021362,319.707062 133.509415,320.221344 
	C130.824982,321.134430 128.950119,322.125641 128.764587,325.580872 
	C128.599167,328.661438 126.763680,329.836395 122.945992,329.760040 
	C118.027168,329.661682 113.637672,328.615204 108.948090,327.458740 
	C102.898254,325.966858 97.370720,332.469482 96.963348,339.660889 
	C96.458954,348.564819 95.707573,357.455566 94.973381,366.344666 
	C94.876541,367.517181 94.251579,368.646088 93.737396,370.199432 
	C89.453026,367.728699 88.265297,364.373322 87.978607,360.410889 
	C87.719162,356.824768 87.269440,353.252441 86.903610,349.674011 
	C86.405807,349.639496 85.907997,349.604950 85.410194,349.570435 
	C85.114983,353.066986 84.944275,356.580017 84.483818,360.054657 
	C84.136848,362.672974 83.418694,365.242157 82.515106,367.915070 
	C81.778740,362.966583 81.393044,357.936218 81.434021,352.364929 
	C82.241226,348.032379 82.902512,344.244263 82.949852,340.448486 
	C83.094360,328.862030 82.824867,317.267883 83.131325,305.687744 
	C83.205101,302.899933 82.007767,298.658875 86.999084,298.451965 
	C87.332321,302.601807 87.665565,306.300903 87.834480,310.375122 
	C87.447533,318.166809 87.224907,325.583344 87.011055,333.403076 
	C87.781563,337.073700 88.543304,340.341156 89.305046,343.608582 
	C89.745201,343.625549 90.185356,343.642517 90.625511,343.659485 
	C91.398422,341.585541 92.652840,339.558533 92.860588,337.429474 
	C93.742798,328.387695 94.411293,319.321686 94.976242,310.253235 
	C95.747879,297.867126 96.375244,285.471802 97.013687,273.077820 
	C97.138046,270.663635 97.214722,268.220673 96.996315,265.819855 
	C96.204834,257.119171 100.459137,248.435822 107.078865,245.476059 
	C109.035141,244.601379 110.874794,243.365234 112.907661,242.781357 
	C119.031944,241.022354 125.009598,237.110123 131.676788,241.560074 
	C132.808014,242.315109 135.164673,242.231201 136.459656,241.567734 
	C141.533691,238.968048 146.770081,236.444427 151.229782,232.972397 
	C154.134064,230.711304 156.436081,228.612259 160.504745,230.160553 
	C168.386551,249.100784 176.028793,267.789185 183.734238,286.632202 
	C185.523972,285.923920 186.711517,285.684937 187.631760,285.055267 
	C202.427002,274.931732 217.226135,264.812500 231.899231,254.514008 
	C233.390869,253.467102 234.258667,251.360977 235.109558,249.598450 
	C242.115646,235.086075 249.049301,220.538742 256.337158,206.001648 
	C257.112488,206.001007 257.555511,206.000702 258.248230,206.242371 
	C265.598328,221.655655 272.698761,236.826965 279.799194,251.998276 
M106.685959,314.171936 
	C104.737602,315.580444 104.606026,316.777252 106.662590,318.425232 
	C111.791626,322.535339 119.202003,322.072205 123.133026,316.938049 
	C123.682457,316.220428 122.895912,313.376343 122.732651,313.376801 
	C117.601852,313.390167 112.265396,308.412506 106.685959,314.171936 
M177.002655,289.590851 
	C177.500824,290.658264 177.998978,291.725677 178.497162,292.793121 
	C179.984695,292.051514 181.472229,291.309906 183.137222,290.479858 
	C178.828995,285.845276 178.365036,285.754608 177.002655,289.590851 
M150.028305,288.823608 
	C150.353699,287.985657 150.679077,287.147736 151.004471,286.309784 
	C149.426697,286.555145 147.848938,286.800507 146.271164,287.045837 
	C146.352280,287.549377 146.433395,288.052917 146.514496,288.556458 
	C147.442459,288.688019 148.370422,288.819611 150.028305,288.823608 
z"/>
<path fill="#F6F6F5" opacity="1.000000" stroke="none" 
	d="
M210.998352,81.166290 
	C234.214035,81.111160 257.429718,81.051506 280.645416,81.003685 
	C287.454254,80.989662 294.263184,81.009247 301.453156,81.444611 
	C299.131561,82.940536 296.428894,84.005257 292.446350,85.574188 
	C307.997314,86.900063 322.573029,85.179840 336.857483,88.751160 
	C333.512390,90.462746 330.111664,91.747581 326.662323,91.894958 
	C318.860657,92.228287 311.020081,91.721779 303.226349,92.137665 
	C300.108887,92.304024 297.072998,93.999992 293.666687,94.999695 
	C292.888885,94.999695 292.444458,94.999695 291.700012,94.709656 
	C283.048401,94.286728 274.696716,94.100327 266.345245,94.108742 
	C265.562866,94.109528 264.781708,95.340103 263.583344,95.999710 
	C261.777802,95.999733 260.388885,95.999741 258.812683,95.755470 
	C257.750214,95.674217 256.875122,95.837242 255.666672,96.000206 
	C254.888901,96.000191 254.444443,96.000237 253.532394,96.000145 
	C247.709854,96.000107 242.354935,96.000206 236.612793,96.000809 
	C234.483719,96.334099 232.741852,96.666893 230.918045,96.626053 
	C229.845062,95.853424 228.786835,94.994537 227.873581,95.127945 
	C220.354843,96.226257 212.865128,97.521835 205.361786,98.727600 
	C203.094162,99.091995 200.353348,100.329597 198.615631,99.506676 
	C191.444138,96.110527 187.934067,101.720154 183.605377,105.110268 
	C182.779892,105.756760 182.477081,108.360977 183.098007,109.206718 
	C183.738876,110.079659 185.803940,110.151947 187.240082,110.132896 
	C188.960815,110.110062 190.942917,108.971443 192.308655,109.535149 
	C193.418579,109.993263 193.786102,112.250061 194.482864,113.709190 
	C191.583359,114.721230 188.651886,118.342171 185.673386,115.621674 
	C181.098938,111.443474 178.361435,113.964600 175.310898,117.171066 
	C174.510544,118.012337 173.679886,119.299721 172.722977,119.442413 
	C164.601974,120.653488 160.851913,128.078430 154.743271,132.146667 
	C147.567169,136.925842 141.588547,143.493881 135.016479,149.200745 
	C134.190125,149.918304 132.867630,150.031158 131.853271,150.571182 
	C126.813026,153.254562 121.827759,156.042206 116.767448,158.686584 
	C111.971703,161.192673 107.294594,164.154449 102.202705,165.779922 
	C99.114174,166.765869 98.116524,168.077805 98.012848,170.821686 
	C97.662933,180.082581 97.417091,189.348694 96.917549,198.601273 
	C96.836754,200.097855 95.667198,201.535645 95.000565,202.532059 
	C95.333237,194.279266 95.506638,186.484177 96.035271,178.713242 
	C96.910774,165.843536 97.279686,152.868851 99.359360,140.183868 
	C100.282112,134.555557 103.919769,128.588104 108.031219,124.483635 
	C112.287773,120.234322 118.592323,118.021271 124.038010,114.983780 
	C127.576660,113.010017 130.841827,111.017509 126.782143,106.020370 
	C136.554504,102.436714 144.862350,96.772484 155.394760,96.898094 
	C166.003815,97.024628 176.622055,96.305351 187.237564,96.001488 
	C191.476578,95.880157 195.733795,96.085335 199.957062,95.783188 
	C211.498749,94.957481 223.020584,93.851555 234.563782,93.051186 
	C238.321274,92.790649 242.135239,93.375656 245.897614,93.148048 
	C255.641632,92.558563 265.367523,91.675697 275.108063,91.020172 
	C281.478271,90.591461 287.861847,90.363350 294.238556,90.028214 
	C296.611969,89.903473 298.982880,89.729782 301.354919,89.578415 
	C297.004883,87.961197 292.766968,87.167221 288.511566,87.058304 
	C270.407745,86.594963 252.299179,86.304993 234.190994,86.047707 
	C232.465500,86.023193 230.730560,86.666054 228.630432,86.956352 
	C225.840988,86.941704 223.421097,86.969788 220.928772,86.640961 
	C218.942978,84.519249 217.207047,83.962517 215.534332,86.997894 
	C208.713318,86.665657 202.356659,86.333092 195.863373,85.667747 
	C196.508972,84.557617 197.235626,83.189629 198.083511,83.109840 
	C201.034286,82.832138 204.044281,83.188126 206.996262,82.916878 
	C208.372284,82.790443 209.666855,81.777435 210.998352,81.166290 
z"/>
<path fill="#D9D9D8" opacity="1.000000" stroke="none" 
	d="
M426.953491,153.009964 
	C425.634338,145.622971 424.315186,138.235962 422.953430,130.108658 
	C422.277191,128.909988 421.643555,128.451614 421.009918,127.993256 
	C420.674316,126.896935 420.338715,125.800613 420.007507,124.017975 
	C420.654694,122.913841 421.632080,121.991142 421.886322,122.159622 
	C423.621338,123.309494 425.204407,124.688698 426.836456,125.993950 
	C426.836456,125.993950 426.996918,126.423233 427.022461,126.938049 
	C427.283447,127.955307 427.518890,128.457764 427.754364,128.960205 
	C428.176239,130.019638 428.598145,131.079056 429.033081,132.784546 
	C429.276001,133.937622 429.505890,134.444626 429.735779,134.951630 
	C430.495728,138.391953 431.712860,141.803970 431.927948,145.278015 
	C432.519653,154.835861 432.969482,164.419296 432.983704,173.993332 
	C433.070465,232.398651 433.293457,290.806488 432.791748,349.207672 
	C432.688202,361.259857 432.566711,373.607330 428.286560,385.369415 
	C421.842926,403.076782 410.556976,416.345581 393.356049,424.577087 
	C396.278900,421.268188 399.733276,418.377411 402.743927,415.081390 
	C408.844696,408.402283 414.777588,401.564880 420.612488,394.651581 
	C422.025818,392.977051 422.615112,390.831696 418.995819,390.612732 
	C419.999146,388.165405 420.994080,386.079651 421.992432,383.577148 
	C422.992218,378.105316 423.988617,373.050201 425.149841,367.627136 
	C425.861298,362.170074 426.407928,357.080994 426.954590,351.991913 
	C426.971466,329.213104 427.001495,306.434326 426.977417,283.655548 
	C426.975677,282.028015 426.577148,280.400848 426.248749,277.976776 
	C426.423279,275.391510 426.962769,273.603180 426.964233,271.814423 
	C426.996521,232.212967 426.969360,192.611465 426.953491,153.009964 
z"/>
<path fill="#CACACA" opacity="1.000000" stroke="none" 
	d="
M418.987427,390.974335 
	C422.615112,390.831696 422.025818,392.977051 420.612488,394.651581 
	C414.777588,401.564880 408.844696,408.402283 402.743927,415.081390 
	C399.733276,418.377411 396.278900,421.268188 393.024658,424.716217 
	C385.399292,427.394196 377.902588,430.899567 370.120636,431.729370 
	C357.483093,433.076904 344.658691,432.671967 331.346222,432.541473 
	C329.586121,431.718109 328.393280,431.048157 327.199738,431.046936 
	C277.145477,430.995575 227.091110,430.989807 177.036942,431.081451 
	C175.694809,431.083923 174.354752,432.222473 173.013733,432.831268 
	C158.625671,433.346680 144.298981,432.924896 130.350601,428.938293 
	C126.321548,427.786774 122.540222,425.768463 118.179680,423.803162 
	C117.470551,423.242462 117.187424,423.112427 116.864662,423.068634 
	C116.864662,423.068634 116.949440,423.053192 116.962234,422.688660 
	C116.649956,419.195068 118.610931,418.819733 121.379303,418.984741 
	C123.164764,419.331482 124.582092,419.666992 126.207848,420.281921 
	C128.470367,421.606812 130.430313,423.252686 132.595093,423.592041 
	C141.231018,424.945984 149.926926,426.809662 158.607346,426.845184 
	C224.210815,427.113678 289.815918,427.017456 355.420410,426.945923 
	C360.206665,426.940704 365.190887,426.957062 369.736572,425.705170 
	C379.208405,423.096710 389.073212,421.070435 397.260284,415.238159 
	C404.224091,410.277313 411.537292,405.453735 415.260468,396.798950 
	C416.680176,394.725983 417.833801,392.850159 418.987427,390.974335 
z"/>
<path fill="#F4F5F4" opacity="1.000000" stroke="none" 
	d="
M86.999084,298.001221 
	C82.007767,298.658875 83.205101,302.899933 83.131325,305.687744 
	C82.824867,317.267883 83.094360,328.862030 82.949852,340.448486 
	C82.902512,344.244263 82.241226,348.032379 81.511757,351.910370 
	C81.111595,326.972137 81.060371,301.947540 81.467438,276.347717 
	C82.283577,274.412292 82.951721,273.052643 82.953941,271.691864 
	C83.011650,236.295288 83.022827,200.898560 82.922424,165.502197 
	C82.918167,164.000748 81.768196,162.502548 81.151962,161.002838 
	C81.103622,159.283737 81.055290,157.564636 81.360153,155.376450 
	C82.003288,154.589233 82.293221,154.271103 82.583160,153.952972 
	C82.103996,153.636230 81.624840,153.319504 81.145676,153.002762 
	C81.094765,152.555206 81.043854,152.107666 81.425018,151.274231 
	C84.509956,149.059906 85.506493,147.144836 82.164780,145.002975 
	C82.112785,144.555511 82.060783,144.108032 82.444412,143.317230 
	C83.556190,142.089142 84.944313,141.041534 84.785606,140.347794 
	C84.088043,137.298615 85.729774,136.948517 88.002197,137.444580 
	C87.668098,165.926056 87.335121,193.962189 87.001297,222.467087 
	C87.000923,239.623489 87.001373,256.311127 87.001320,273.467194 
	C87.000237,281.957489 86.999664,289.979340 86.999084,298.001221 
z"/>
<path fill="#F9F9F8" opacity="1.000000" stroke="none" 
	d="
M88.003304,136.999252 
	C85.729774,136.948517 84.088043,137.298615 84.785606,140.347794 
	C84.944313,141.041534 83.556190,142.089142 82.519615,142.985535 
	C83.388680,130.523300 88.219582,119.446289 95.955673,109.100235 
	C97.813736,108.435829 99.264267,108.174675 100.089012,107.313919 
	C107.129463,99.966087 114.846603,93.588188 124.176636,89.281708 
	C125.072182,88.868355 125.404266,87.234268 125.997917,86.166878 
	C131.886505,84.776459 137.739914,82.382439 143.669937,82.174606 
	C165.790405,81.399323 187.936005,81.341095 210.535263,81.090057 
	C209.666855,81.777435 208.372284,82.790443 206.996262,82.916878 
	C204.044281,83.188126 201.034286,82.832138 198.083511,83.109840 
	C197.235626,83.189629 196.508972,84.557617 195.565155,85.956741 
	C188.849472,86.640549 182.292664,86.605408 175.741791,86.785477 
	C163.265823,87.128418 150.529129,86.130424 138.375900,88.323074 
	C115.250397,92.495323 99.609787,106.776695 91.199768,128.805283 
	C90.154106,131.544174 89.069733,134.268295 88.003304,136.999252 
z"/>
<path fill="#F4F5F4" opacity="1.000000" stroke="none" 
	d="
M294.000000,94.999695 
	C297.072998,93.999992 300.108887,92.304024 303.226349,92.137665 
	C311.020081,91.721779 318.860657,92.228287 326.662323,91.894958 
	C330.111664,91.747581 333.512390,90.462746 336.857483,88.751160 
	C322.573029,85.179840 307.997314,86.900063 292.446350,85.574188 
	C296.428894,84.005257 299.131561,82.940536 301.916168,81.521057 
	C303.716675,81.114609 305.435242,81.062904 307.687622,81.464333 
	C312.248199,83.249168 316.277130,84.614616 319.998962,81.166107 
	C320.752167,81.114464 321.505371,81.062820 322.690002,81.401581 
	C324.080597,81.583435 325.039764,81.374893 325.998932,81.166351 
	C326.445831,81.114990 326.892761,81.063637 327.755646,81.450211 
	C330.064789,82.592010 331.960297,83.895088 333.850616,83.887611 
	C339.568573,83.865005 345.284515,83.334061 351.014526,83.393127 
	C353.331848,84.854752 355.544769,86.261787 357.961395,86.914955 
	C361.565521,87.889076 365.313324,88.331604 368.990021,89.405487 
	C367.457794,90.873291 365.938812,92.837700 364.412720,92.843246 
	C357.609589,92.867966 350.804413,92.332840 343.600006,92.000000 
	C342.133331,92.000000 341.066681,92.000000 339.773224,91.752258 
	C336.364288,92.669579 333.182159,93.834633 329.666687,94.999786 
	C328.888885,94.999931 328.444458,94.999962 327.700073,94.709900 
	C318.715729,94.286835 310.031311,94.102356 301.346985,94.108498 
	C300.564209,94.109055 299.782318,95.340096 298.625000,95.999786 
	C297.500000,95.999908 296.750000,95.999954 295.828491,95.759216 
	C295.104645,95.345512 294.552307,95.172607 294.000000,94.999695 
z"/>
<path fill="#E0E0DF" opacity="1.000000" stroke="none" 
	d="
M125.999420,420.002502 
	C124.582092,419.666992 123.164764,419.331482 121.321381,418.647339 
	C116.258705,414.694366 111.227661,411.484436 107.107140,407.363922 
	C103.654602,403.911438 100.878944,402.108673 96.882202,406.047180 
	C95.897530,404.816498 94.912857,403.585815 93.888916,401.631592 
	C94.218826,398.992310 94.587997,397.076569 95.180679,394.001007 
	C99.821800,398.120483 103.646477,401.020538 106.875938,404.476807 
	C115.700829,413.921417 127.841103,415.671936 139.348297,418.912048 
	C140.088470,419.120453 141.109970,418.329651 142.416946,418.002991 
	C144.220764,418.003143 145.608246,418.004028 147.090912,418.392944 
	C148.345367,419.186829 149.491730,419.901001 150.665955,419.950165 
	C160.656265,420.368744 170.655365,420.590729 180.641464,421.082611 
	C182.122314,421.155518 183.548843,422.330963 184.735107,423.273224 
	C183.498718,423.696533 182.524185,423.990356 181.557343,423.966919 
	C169.324554,423.670776 157.082031,423.533447 144.866867,422.886169 
	C140.685486,422.664612 136.596176,421.009125 132.419891,420.258545 
	C130.331848,419.883240 128.142792,420.070007 125.999420,420.002502 
z"/>
<path fill="#D9D9D8" opacity="1.000000" stroke="none" 
	d="
M173.477112,432.899597 
	C174.354752,432.222473 175.694809,431.083923 177.036942,431.081451 
	C227.091110,430.989807 277.145477,430.995575 327.199738,431.046936 
	C328.393280,431.048157 329.586121,431.718109 330.883057,432.459778 
	C291.601257,432.893219 252.215714,432.948975 212.830170,432.989380 
	C199.866959,433.002686 186.903717,432.976196 173.477112,432.899597 
z"/>
<path fill="#F9F9F8" opacity="1.000000" stroke="none" 
	d="
M81.078033,161.466156 
	C81.768196,162.502548 82.918167,164.000748 82.922424,165.502197 
	C83.022827,200.898560 83.011650,236.295288 82.953941,271.691864 
	C82.951721,273.052643 82.283577,274.412292 81.545807,275.884674 
	C81.111954,237.974396 81.058029,199.951920 81.078033,161.466156 
z"/>
<path fill="#E4E4E3" opacity="1.000000" stroke="none" 
	d="
M142.000610,418.003662 
	C141.109970,418.329651 140.088470,419.120453 139.348297,418.912048 
	C127.841103,415.671936 115.700829,413.921417 106.875938,404.476807 
	C103.646477,401.020538 99.821800,398.120483 95.180679,394.001007 
	C94.587997,397.076569 94.218826,398.992310 93.746994,401.361664 
	C92.100067,399.155853 90.555801,396.496429 89.123390,393.144592 
	C89.908058,391.022217 90.580879,389.592224 91.487862,387.664551 
	C96.708031,391.941315 102.098694,395.338104 106.177094,399.906464 
	C115.320877,410.148682 127.909340,412.945496 140.001160,416.998779 
	C140.445343,416.999115 140.889542,416.999420 141.666901,417.250793 
	C142.000244,417.669098 142.000427,417.836395 142.000610,418.003662 
z"/>
<path fill="#E7E7E6" opacity="1.000000" stroke="none" 
	d="
M139.938919,416.651794 
	C127.909340,412.945496 115.320877,410.148682 106.177094,399.906464 
	C102.098694,395.338104 96.708031,391.941315 91.487862,387.664551 
	C90.580879,389.592224 89.908058,391.022217 89.093552,392.781006 
	C87.640137,390.199646 86.328415,387.289459 85.088120,383.991943 
	C86.818100,382.945984 88.476646,382.287354 90.509468,381.480103 
	C90.836739,381.715485 91.675865,382.049500 92.104988,382.667969 
	C99.179375,392.864471 109.482277,399.445801 119.198013,406.618958 
	C122.005737,408.691925 125.724075,409.508270 128.972870,411.013153 
	C132.638107,412.710876 136.244629,414.535431 139.938919,416.651794 
z"/>
<path fill="#D9D9D8" opacity="1.000000" stroke="none" 
	d="
M97.011955,406.359558 
	C100.878944,402.108673 103.654602,403.911438 107.107140,407.363922 
	C111.227661,411.484436 116.258705,414.694366 120.953247,418.636169 
	C118.610931,418.819733 116.649956,419.195068 116.948265,422.729431 
	C110.328239,417.647125 103.734978,412.159515 97.011955,406.359558 
z"/>
<path fill="#E0E0DF" opacity="1.000000" stroke="none" 
	d="
M426.912048,125.624496 
	C425.204407,124.688698 423.621338,123.309494 421.886322,122.159622 
	C421.632080,121.991142 420.654694,122.913841 420.002991,123.668564 
	C419.362274,123.572807 418.520325,123.277916 418.132019,122.685616 
	C415.098145,118.057808 412.077759,113.417564 409.206940,108.687851 
	C407.626953,106.084854 406.298065,103.284744 411.721985,102.973251 
	C419.562408,108.738358 423.133789,117.090828 426.912048,125.624496 
z"/>
<path fill="#FCFCFB" opacity="1.000000" stroke="none" 
	d="
M125.628845,86.195404 
	C125.404266,87.234268 125.072182,88.868355 124.176636,89.281708 
	C114.846603,93.588188 107.129463,99.966087 100.089012,107.313919 
	C99.264267,108.174675 97.813736,108.435829 96.281601,108.971413 
	C103.161003,98.118912 113.447815,91.187355 125.628845,86.195404 
z"/>
<path fill="#F2F2F2" opacity="1.000000" stroke="none" 
	d="
M369.000000,89.000305 
	C365.313324,88.331604 361.565521,87.889076 357.961395,86.914955 
	C355.544769,86.261787 353.331848,84.854752 351.454712,83.392982 
	C354.586731,82.387230 357.291840,81.773521 359.996918,81.159813 
	C363.046356,81.443184 366.095795,81.726555 369.507507,82.406906 
	C368.979309,83.810364 368.088837,84.816856 367.354492,85.646858 
	C368.383057,86.949562 369.192139,87.974319 369.750916,88.999420 
	C369.333740,88.999947 369.166870,89.000122 369.000000,89.000305 
z"/>
<path fill="#F0F0EF" opacity="1.000000" stroke="none" 
	d="
M370.001221,88.999077 
	C369.192139,87.974319 368.383057,86.949562 367.354492,85.646858 
	C368.088837,84.816856 368.979309,83.810364 369.933655,82.481857 
	C374.596283,83.189590 379.195007,84.219330 383.953522,85.601730 
	C381.649994,86.143623 379.186615,86.332863 376.067230,86.572495 
	C377.142822,88.003502 378.016632,89.166016 378.581604,90.623543 
	C376.181854,90.279037 374.090912,89.639519 371.666870,88.999847 
	C370.889557,88.999489 370.445404,88.999290 370.001221,88.999077 
z"/>
<path fill="#F6F6F5" opacity="1.000000" stroke="none" 
	d="
M359.533844,81.084244 
	C357.291840,81.773521 354.586731,82.387230 351.441437,83.001083 
	C345.284515,83.334061 339.568573,83.865005 333.850616,83.887611 
	C331.960297,83.895088 330.064789,82.592010 328.086426,81.527275 
	C338.357727,81.113823 348.714233,81.061249 359.533844,81.084244 
z"/>
<path fill="#F6F6F5" opacity="1.000000" stroke="none" 
	d="
M319.543762,81.089928 
	C316.277130,84.614616 312.248199,83.249168 308.111328,81.541824 
	C311.696991,81.115364 315.392761,81.064552 319.543762,81.089928 
z"/>
<path fill="#F9F9F8" opacity="1.000000" stroke="none" 
	d="
M82.089615,145.393127 
	C85.506493,147.144836 84.509956,149.059906 81.500839,150.942810 
	C81.434547,149.259277 81.724495,147.521286 82.089615,145.393127 
z"/>
<path fill="#F6F6F5" opacity="1.000000" stroke="none" 
	d="
M325.628052,81.090202 
	C325.039764,81.374893 324.080597,81.583435 323.061310,81.479095 
	C323.753204,81.115494 324.505188,81.064774 325.628052,81.090202 
z"/>
<path fill="#F9F9F8" opacity="1.000000" stroke="none" 
	d="
M81.073456,153.332855 
	C81.624840,153.319504 82.103996,153.636230 82.583160,153.952972 
	C82.293221,154.271103 82.003288,154.589233 81.434685,154.952148 
	C81.104424,154.552277 81.052826,154.107620 81.073456,153.332855 
z"/>
<path fill="#E0E0DF" opacity="1.000000" stroke="none" 
	d="
M429.806885,134.633881 
	C429.505890,134.444626 429.276001,133.937622 429.048676,133.143173 
	C429.326843,133.342514 429.602386,133.829315 429.806885,134.633881 
z"/>
<path fill="#E0E0DF" opacity="1.000000" stroke="none" 
	d="
M427.817841,128.646912 
	C427.518890,128.457764 427.283447,127.955307 427.045044,127.166084 
	C427.321838,127.364075 427.601593,127.848839 427.817841,128.646912 
z"/>
<path fill="#D9D9D8" opacity="1.000000" stroke="none" 
	d="
M116.955353,423.321289 
	C117.187424,423.112427 117.470551,423.242462 117.842545,423.657074 
	C117.662704,423.761597 117.354370,423.667786 116.955353,423.321289 
z"/>
<path fill="#5B7AD6" opacity="1.000000" stroke="none" 
	d="
M280.009338,252.284653 
	C272.698761,236.826965 265.598328,221.655655 258.223389,205.952286 
	C257.617737,205.118622 257.286621,204.817001 256.955505,204.515381 
	C256.638641,205.010925 256.321777,205.506470 256.004883,206.001999 
	C249.049301,220.538742 242.115646,235.086075 235.109558,249.598450 
	C234.258667,251.360977 233.390869,253.467102 231.899231,254.514008 
	C217.226135,264.812500 202.427002,274.931732 187.631760,285.055267 
	C186.711517,285.684937 185.523972,285.923920 183.734238,286.632202 
	C176.028793,267.789185 168.386551,249.100784 160.446640,229.787537 
	C153.497833,213.010590 146.846695,196.858475 140.155792,180.346573 
	C137.194016,172.671478 134.272034,165.356186 131.222244,157.720901 
	C143.023346,157.720901 154.741058,157.652237 166.454239,157.851151 
	C167.392319,157.867081 168.599564,159.583435 169.165741,160.758240 
	C171.096222,164.763947 172.795822,168.880936 174.669647,173.263367 
	C178.547943,182.710800 182.340134,191.850311 186.154190,201.353271 
	C191.472137,214.715836 196.768219,227.714920 202.478363,241.730316 
	C204.183533,238.503464 205.383942,236.353333 206.474777,234.148987 
	C218.419662,210.010712 230.396439,185.887909 242.216217,161.688446 
	C243.651871,158.749130 245.273163,157.437515 248.651062,157.620605 
	C254.123657,157.917175 259.635864,157.921875 265.108307,157.625031 
	C268.631348,157.433914 270.438171,158.707031 271.961212,161.857803 
	C275.999268,170.211502 280.438477,178.371231 284.699585,186.965790 
	C293.393188,205.184280 302.105316,223.045120 311.278595,241.851349 
	C312.724426,238.692657 313.684631,236.770157 314.499451,234.787933 
	C323.542603,212.789841 333.151062,190.997269 341.306213,168.674042 
	C344.661713,159.489044 349.237732,156.487869 358.542358,157.533310 
	C366.190369,158.392609 374.011749,157.708557 382.628296,157.708557 
	C376.675568,172.487808 371.101227,186.327560 365.526886,200.167313 
	C363.547424,201.452515 361.729919,203.323837 359.560944,203.923004 
	C349.347443,206.744415 339.037537,209.216919 327.778839,212.062408 
	C331.704712,216.489792 335.135864,220.359207 339.023926,224.743942 
	C333.350189,229.733322 327.728668,234.774170 322.000061,239.690262 
	C314.567291,246.068741 307.188019,252.521973 299.531647,258.624298 
	C290.616852,265.729584 286.543060,264.733093 281.376099,254.774765 
	C280.994049,254.038376 280.605164,253.305527 280.009338,252.284653 
z"/>
<path fill="#F0F0EF" opacity="1.000000" stroke="none" 
	d="
M365.704956,200.512238 
	C371.101227,186.327560 376.675568,172.487808 382.628296,157.708557 
	C374.011749,157.708557 366.190369,158.392609 358.542358,157.533310 
	C349.237732,156.487869 344.661713,159.489044 341.306213,168.674042 
	C333.151062,190.997269 323.542603,212.789841 314.499451,234.787933 
	C313.684631,236.770157 312.724426,238.692657 311.278595,241.851349 
	C302.105316,223.045120 293.393188,205.184280 284.859283,186.594818 
	C287.798004,180.903519 291.415283,176.413956 292.444580,170.525620 
	C292.782074,168.595047 294.244385,166.420547 295.843964,165.242157 
	C299.251251,162.732025 303.307892,161.098145 306.691010,158.561722 
	C311.495361,154.959793 318.433350,156.777130 322.658264,150.267181 
	C325.368622,146.090927 324.315521,145.580978 322.479401,144.527893 
	C323.565247,140.453506 323.484192,135.995163 325.664368,133.567734 
	C330.215759,128.500198 335.526154,123.781914 341.343872,120.281601 
	C346.706879,117.054871 351.718903,114.617706 351.129730,107.205147 
	C351.033752,105.997269 352.276062,104.576912 353.122589,103.417435 
	C358.558777,95.972000 368.264862,97.658546 378.329315,101.228531 
	C380.092407,101.853920 381.562683,103.304802 383.168213,104.374435 
	C381.226044,105.743835 379.787262,105.832954 378.387634,106.115829 
	C375.229645,106.754097 371.994019,110.948372 373.618256,112.297234 
	C375.100677,113.528267 378.544220,114.043510 380.171631,113.146797 
	C385.135132,110.411896 388.838470,110.501854 391.279480,116.141640 
	C395.248108,112.680275 393.848206,109.202621 387.147278,104.880737 
	C388.491425,100.422562 386.026398,97.429451 383.019165,94.593315 
	C381.888794,93.527229 380.999329,92.205688 380.000000,91.000610 
	C384.233063,94.073395 389.238220,96.491478 392.524628,100.367027 
	C397.927307,106.738258 403.847046,113.485069 406.514771,121.131973 
	C409.169250,128.740997 410.434814,136.685837 414.646515,143.966095 
	C416.449219,147.082260 415.786346,152.358444 414.666534,156.192490 
	C413.816772,159.101990 410.587677,161.400696 408.202454,163.753311 
	C405.934814,165.989960 403.415802,167.977142 400.952972,170.008194 
	C399.707581,171.035248 398.469543,172.378754 397.008270,172.781815 
	C391.527100,174.293716 388.783539,178.300995 386.359619,183.002365 
	C385.219635,185.213394 383.195160,187.034210 381.351929,188.803085 
	C377.552979,192.448853 373.671509,196.016846 369.673615,199.441254 
	C368.711609,200.265259 367.162262,200.403534 365.704956,200.512238 
z"/>
<path fill="#F2F2F2" opacity="1.000000" stroke="none" 
	d="
M379.750000,91.000320 
	C380.999329,92.205688 381.888794,93.527229 383.019165,94.593315 
	C386.026398,97.429451 388.491425,100.422562 387.147278,104.880737 
	C393.848206,109.202621 395.248108,112.680275 391.279480,116.141640 
	C388.838470,110.501854 385.135132,110.411896 380.171631,113.146797 
	C378.544220,114.043510 375.100677,113.528267 373.618256,112.297234 
	C371.994019,110.948372 375.229645,106.754097 378.387634,106.115829 
	C379.787262,105.832954 381.226044,105.743835 383.168213,104.374435 
	C381.562683,103.304802 380.092407,101.853920 378.329315,101.228531 
	C368.264862,97.658546 358.558777,95.972000 353.122589,103.417435 
	C352.276062,104.576912 351.033752,105.997269 351.129730,107.205147 
	C351.718903,114.617706 346.706879,117.054871 341.343872,120.281601 
	C335.526154,123.781914 330.215759,128.500198 325.664368,133.567734 
	C323.484192,135.995163 323.565247,140.453506 322.479401,144.527893 
	C324.315521,145.580978 325.368622,146.090927 322.658264,150.267181 
	C318.433350,156.777130 311.495361,154.959793 306.691010,158.561722 
	C303.307892,161.098145 299.251251,162.732025 295.843964,165.242157 
	C294.244385,166.420547 292.782074,168.595047 292.444580,170.525620 
	C291.415283,176.413956 287.798004,180.903519 284.877808,186.237167 
	C280.438477,178.371231 275.999268,170.211502 271.961212,161.857803 
	C270.438171,158.707031 268.631348,157.433914 265.108307,157.625031 
	C259.635864,157.921875 254.123657,157.917175 248.651062,157.620605 
	C245.273163,157.437515 243.651871,158.749130 242.216217,161.688446 
	C230.396439,185.887909 218.419662,210.010712 206.474777,234.148987 
	C205.383942,236.353333 204.183533,238.503464 202.478363,241.730316 
	C196.768219,227.714920 191.472137,214.715836 186.494873,201.276703 
	C187.771759,199.191437 188.358307,197.054565 189.759491,195.995651 
	C193.542572,193.136642 197.825912,190.938873 201.603745,188.073914 
	C203.671921,186.505508 205.421829,184.299484 206.769623,182.053558 
	C208.508530,179.155853 209.744278,175.949493 211.120529,172.842316 
	C213.867874,166.639694 219.774338,164.010178 224.992676,160.687744 
	C231.028732,156.844696 237.343948,153.438354 243.351578,149.554138 
	C244.354492,148.905716 244.724854,146.814896 244.835220,145.348999 
	C245.049210,142.507095 243.744873,138.013580 245.073425,137.091553 
	C248.553741,134.676117 250.872971,131.228378 253.992432,128.790253 
	C259.737305,124.300140 266.488525,121.120323 272.589478,117.048508 
	C274.319366,115.893944 276.302246,113.557457 276.331024,111.734009 
	C276.394531,107.710487 275.288544,103.668518 274.524841,98.768456 
	C275.662201,98.608498 277.822479,98.281052 279.989227,98.004616 
	C285.324585,97.323921 290.662872,96.666679 296.000000,96.000000 
	C296.750000,95.999954 297.500000,95.999908 299.087646,95.999916 
	C304.164246,96.307236 308.419983,97.003807 312.637909,96.822105 
	C317.775238,96.600815 322.880737,95.640602 328.000000,95.000000 
	C328.444458,94.999962 328.888885,94.999931 330.075745,94.999832 
	C333.878754,93.999840 336.939392,92.999924 340.000000,92.000000 
	C341.066681,92.000000 342.133331,92.000000 343.779449,92.324936 
	C354.358185,97.158325 364.432892,94.820732 375.170410,93.805534 
	C373.726318,91.616646 372.863159,90.308327 372.000000,89.000000 
	C374.090912,89.639519 376.181854,90.279037 378.636383,90.959122 
	C379.166656,90.999809 379.333344,90.999931 379.750000,91.000320 
M339.916962,107.301537 
	C338.896088,97.831451 336.027435,96.366547 327.770416,101.089912 
	C327.048828,101.502701 326.173645,101.727592 325.578979,102.269363 
	C319.293640,107.995392 315.861786,109.760651 319.535400,117.513725 
	C321.223511,116.085167 323.025330,114.998421 324.241364,113.451233 
	C328.290131,108.299850 334.062836,108.472183 339.916962,107.301537 
M313.974030,127.382774 
	C315.412964,125.756546 316.851898,124.130318 318.290833,122.504089 
	C318.021393,121.979271 317.751953,121.454460 317.482544,120.929649 
	C314.729767,121.303650 311.976990,121.677643 309.224213,122.051643 
	C309.102509,122.617798 308.980804,123.183952 308.859100,123.750107 
	C310.351929,125.061081 311.844788,126.372055 313.974030,127.382774 
z"/>
<path fill="#5A7AD7" opacity="1.000000" stroke="none" 
	d="
M338.920410,328.007080 
	C338.920410,337.798431 338.920410,347.589783 338.920410,357.730072 
	C325.001495,357.730072 311.774872,357.730072 297.281616,357.730072 
	C297.281616,345.088226 297.281616,332.510742 297.216553,319.468750 
	C297.204346,309.520996 297.353180,300.036743 297.254211,290.555115 
	C297.222656,287.534271 298.304962,286.298767 301.009094,284.625519 
	C309.729675,279.229431 318.022736,273.122620 326.315033,267.063171 
	C330.157715,264.255157 333.617493,260.923218 337.250885,257.828796 
	C337.763580,257.953400 338.276306,258.077972 338.789001,258.202545 
	C338.789001,277.159027 338.789001,296.115479 338.854034,315.537170 
	C338.874146,317.391357 338.829224,318.780334 338.789062,321.016235 
	C338.835999,323.911163 338.878204,325.959137 338.920410,328.007080 
z"/>
<path fill="#5C7BD7" opacity="1.000000" stroke="none" 
	d="
M272.988983,358.572266 
	C272.250671,358.518860 271.512329,358.465454 270.404633,358.434174 
	C259.064941,358.456329 248.094604,358.456329 236.696152,358.456329 
	C236.696152,334.397003 236.696152,311.041962 236.696152,287.314758 
	C250.141693,287.314758 263.534851,287.314758 277.766754,287.314758 
	C277.766754,302.229462 277.766754,317.151062 277.828979,332.538391 
	C277.838165,339.981842 277.898651,346.963776 277.640320,353.933929 
	C277.585815,355.404236 276.362701,356.831207 275.009521,358.363831 
	C273.890350,358.490448 273.439667,358.531342 272.988983,358.572266 
z"/>
<path fill="#5D7CD4" opacity="1.000000" stroke="none" 
	d="
M159.695541,306.345032 
	C159.564941,305.816345 159.614777,305.636597 160.051804,305.109619 
	C161.412521,304.247131 162.386063,303.731873 163.359604,303.216644 
	C167.389297,301.614258 171.419006,300.011841 176.014801,298.179260 
	C177.064835,297.658264 177.548767,297.367523 178.032700,297.076782 
	C182.832947,294.812683 187.633194,292.548584 192.968750,290.039551 
	C194.056030,289.403320 194.608017,289.011993 195.160004,288.620636 
	C205.692398,281.689056 216.311951,274.885162 226.723282,267.776276 
	C232.615952,263.752777 238.032425,259.030548 243.936966,255.026443 
	C246.330841,253.403076 249.452652,252.853195 253.049210,251.761032 
	C255.908066,251.681732 257.960938,251.656250 260.013794,251.630768 
	C260.449921,251.751175 260.886017,251.871597 261.951111,252.172501 
	C265.009918,253.662369 267.439819,254.971741 269.869690,256.281128 
	C273.284821,259.443787 276.535278,262.810516 280.149445,265.726471 
	C287.589355,271.729156 293.514557,272.227356 300.954773,266.264069 
	C314.332733,255.541718 327.261169,244.256943 340.325745,233.146408 
	C343.336731,230.585739 346.139008,227.779648 349.275940,224.864792 
	C346.536835,221.948044 344.073761,219.325256 340.998474,216.050491 
	C352.070557,213.330490 362.484344,210.772217 373.637878,208.032211 
	C372.943878,211.009781 372.432983,213.509232 371.774841,215.969299 
	C369.575958,224.188416 367.324402,232.393417 364.971527,241.050980 
	C363.766205,240.032761 362.971985,239.456146 362.288025,238.769684 
	C353.646545,230.096207 356.510376,231.688614 348.084717,238.568878 
	C335.085632,249.183716 322.728455,260.580414 309.878540,271.383270 
	C296.104034,282.963440 284.484283,282.609589 271.203033,270.671539 
	C269.468567,269.112518 267.770050,267.513214 266.023682,265.967773 
	C258.638275,259.432190 253.151566,259.502930 245.068771,265.365540 
	C230.663254,275.814148 216.498047,286.704956 201.370743,296.010193 
	C190.535767,302.675110 178.317886,307.104370 166.673325,312.435638 
	C160.554016,315.237213 161.690079,309.151642 159.695541,306.345032 
z"/>
<path fill="#5A7AD7" opacity="1.000000" stroke="none" 
	d="
M179.203247,358.088074 
	C177.734985,357.476227 175.889420,356.878387 175.881073,356.255890 
	C175.712418,343.687775 175.754776,331.116791 175.754776,318.321350 
	C189.258347,318.321350 202.470947,318.321350 215.999985,318.321350 
	C215.999985,331.522339 215.999985,344.418335 215.999985,358.090668 
	C203.834167,358.090668 191.757782,358.090668 179.203247,358.088074 
z"/>
<path fill="#E9E9E9" opacity="1.000000" stroke="none" 
	d="
M232.851654,351.809143 
	C228.892838,354.084534 225.011368,355.988403 221.083572,357.915009 
	C218.961151,351.551880 220.434280,349.486176 226.441467,349.600922 
	C227.372940,349.618774 228.372696,349.267426 229.239639,348.867401 
	C232.012421,347.587952 232.869766,348.903168 232.851654,351.809143 
z"/>
<path fill="#F0F0F0" opacity="1.000000" stroke="none" 
	d="
M270.018982,255.932495 
	C267.439819,254.971741 265.009918,253.662369 262.291901,252.163788 
	C263.839111,247.664932 266.494965,251.172913 268.597412,251.571014 
	C269.347412,251.713013 269.657410,254.178787 270.018982,255.932495 
z"/>
<path fill="#E9EAED" opacity="1.000000" stroke="none" 
	d="
M260.005249,251.463409 
	C257.960938,251.656250 255.908066,251.681732 253.421494,251.633850 
	C255.066864,251.334991 257.145935,251.109497 259.594513,250.923248 
	C259.964020,250.962479 259.996674,251.296051 260.005249,251.463409 
z"/>
<path fill="#E7E7E6" opacity="1.000000" stroke="none" 
	d="
M426.567810,351.981140 
	C426.407928,357.080994 425.861298,362.170074 424.753418,367.613281 
	C420.545563,365.401215 421.654816,361.553925 421.472168,358.029785 
	C421.324036,355.172272 421.021942,352.322784 420.788116,349.469727 
	C420.290588,349.492371 419.793030,349.514984 419.295502,349.537598 
	C418.866791,351.268341 418.044861,353.005707 418.073914,354.728729 
	C418.248230,365.064301 415.195251,374.564453 410.913666,383.773956 
	C409.319366,387.203156 407.641174,390.593292 406.000610,394.250641 
	C406.000000,394.500061 405.998779,394.998871 405.654724,395.036194 
	C403.426971,396.662415 401.635559,398.379456 399.641968,399.815948 
	C393.891876,403.959320 388.391510,408.609802 382.185699,411.923737 
	C372.009521,417.357849 360.499329,417.554657 349.310486,417.883362 
	C333.594543,418.345001 317.853790,417.887421 302.125854,418.044189 
	C293.343170,418.131714 284.566498,418.724762 275.783691,418.963898 
	C273.180359,419.034790 270.567230,418.583801 267.955414,418.532471 
	C260.356537,418.383148 252.754822,418.184937 245.156601,418.256683 
	C239.102600,418.313812 233.052063,418.739288 226.666672,419.001221 
	C225.888901,419.001617 225.444443,419.002014 224.743134,418.727844 
	C222.216187,418.635406 219.946716,418.965576 217.675903,418.975037 
	C205.264694,419.026672 192.852188,419.089813 180.442261,418.953766 
	C175.649429,418.901215 170.864502,418.295380 166.071381,418.022064 
	C164.053711,417.907013 162.024155,418.000244 160.000000,417.998779 
	C163.472565,417.132446 166.938095,415.562531 170.418976,415.527740 
	C182.294296,415.408966 194.175507,416.015747 206.053543,415.985229 
	C214.923492,415.962433 223.887589,416.041534 232.620819,414.773712 
	C236.988770,414.139618 240.871017,414.424103 245.105499,414.856262 
	C251.888641,415.548553 258.777618,415.250183 265.622223,415.276245 
	C269.776093,415.292084 274.003479,414.595062 278.071259,415.148529 
	C290.535858,416.844604 302.870087,416.162598 315.203125,414.159363 
	C316.019562,414.026733 316.867432,413.960388 317.690521,414.015228 
	C327.070801,414.640656 336.187164,412.778259 345.274811,410.917603 
	C346.984528,410.567566 348.898163,409.298767 349.923553,407.880005 
	C352.986450,403.642059 352.832397,403.530731 358.792328,404.690674 
	C358.268951,407.501923 357.741943,410.332733 357.059326,413.999237 
	C360.389496,413.999237 363.406189,414.473785 366.216370,413.913269 
	C375.987274,411.964294 385.653809,409.580200 392.010193,400.834503 
	C392.461578,400.213440 393.058563,399.209625 392.848999,398.671509 
	C390.454773,392.523621 395.373962,389.637054 398.503113,386.097717 
	C400.754669,383.551086 403.758087,381.508820 399.795837,377.682281 
	C402.916016,377.033722 405.286346,376.469269 407.683258,376.060822 
	C410.732269,375.541229 412.328522,373.669708 411.248260,370.864532 
	C410.118042,367.929565 407.008453,366.833374 404.685547,368.850800 
	C399.952454,372.961487 394.960297,377.180145 391.580292,382.340363 
	C387.295776,388.881470 383.774811,391.181671 376.174316,389.254822 
	C373.527130,388.583740 371.569275,389.736786 372.180481,392.584198 
	C373.278534,397.699524 370.770966,397.962067 366.931610,397.175018 
	C365.642853,396.910828 364.037933,397.415680 363.025848,396.814392 
	C362.186157,396.315521 361.296173,394.067169 361.638275,393.689331 
	C366.480682,388.341583 370.525696,382.103241 378.009796,379.652435 
	C379.643463,379.117462 381.102753,376.642517 381.638580,374.773315 
	C381.895599,373.876648 379.776581,372.334717 378.799469,371.035522 
	C378.179169,370.210724 377.140350,369.203979 377.268341,368.443695 
	C377.415680,367.568512 378.535004,366.697113 379.432251,366.155334 
	C380.246002,365.664062 381.381622,365.741791 382.283478,365.354584 
	C386.872742,363.384247 392.060577,362.817322 394.771271,357.262390 
	C396.058624,354.624329 399.941498,353.321411 402.477234,351.208099 
	C406.345856,347.983887 410.673187,345.051270 413.699860,341.139252 
	C417.761902,335.889130 416.037842,329.349121 415.560455,323.272644 
	C415.276459,319.658264 413.999298,317.308350 409.528442,318.869324 
	C408.076691,319.376221 406.151001,318.525513 404.442078,318.295746 
	C404.238831,317.764435 404.035583,317.233124 403.832306,316.701782 
	C405.549866,315.569916 407.586792,313.189453 408.927063,313.532288 
	C413.578888,314.722260 413.982117,311.394623 414.831665,308.745483 
	C417.695038,299.816559 418.059753,290.869385 416.376923,281.487274 
	C415.497528,276.584686 417.485596,271.167755 418.178528,265.983154 
	C418.922028,265.983765 419.665527,265.984406 420.408997,265.985046 
	C420.938263,268.096222 421.865295,270.194855 421.932556,272.320648 
	C422.389648,286.767822 422.748016,301.219452 422.971191,315.672272 
	C423.122101,325.443878 422.799316,335.226837 423.145630,344.988495 
	C423.229370,347.348724 425.120819,349.644806 426.567810,351.981140 
z"/>
<path fill="#EDEDEC" opacity="1.000000" stroke="none" 
	d="
M426.578430,153.014343 
	C426.969360,192.611465 426.996521,232.212967 426.964233,271.814423 
	C426.962769,273.603180 426.423279,275.391510 426.079407,277.595642 
	C425.356873,277.219208 424.117706,276.434418 424.107605,275.634064 
	C423.957916,263.818115 424.050201,251.999130 423.904633,240.183090 
	C423.851807,235.894775 423.142273,231.616119 423.052246,227.326340 
	C422.900360,220.089478 423.128082,212.844498 422.968323,205.607956 
	C422.763367,196.326080 422.058105,187.048370 422.086243,177.770432 
	C422.109192,170.226028 422.815033,162.677048 423.461487,155.151031 
	C423.528778,154.367538 425.249725,153.726089 426.578430,153.014343 
z"/>
<path fill="#E4E4E3" opacity="1.000000" stroke="none" 
	d="
M159.666779,417.998962 
	C162.024155,418.000244 164.053711,417.907013 166.071381,418.022064 
	C170.864502,418.295380 175.649429,418.901215 180.442261,418.953766 
	C192.852188,419.089813 205.264694,419.026672 217.675903,418.975037 
	C219.946716,418.965576 222.216187,418.635406 224.647583,419.118500 
	C224.140060,420.180603 223.462997,420.935333 222.803635,420.920135 
	C214.106567,420.720123 205.407227,420.129211 196.719284,420.276215 
	C193.464447,420.331329 190.237595,422.040344 186.665070,422.996521 
	C185.888275,422.997284 185.444382,422.996826 185.000519,422.996338 
	C183.548843,422.330963 182.122314,421.155518 180.641464,421.082611 
	C170.655365,420.590729 160.656265,420.368744 150.665955,419.950165 
	C149.491730,419.901001 148.345367,419.186829 147.549469,418.391235 
	C151.275436,418.000580 154.638031,417.999695 158.000610,417.998779 
	C158.444916,417.998901 158.889236,417.998993 159.666779,417.998962 
z"/>
<path fill="#E7E7E6" opacity="1.000000" stroke="none" 
	d="
M157.903824,417.606201 
	C154.638031,417.999695 151.275436,418.000580 147.454285,418.003174 
	C145.608246,418.004028 144.220764,418.003143 142.416946,418.002991 
	C142.000427,417.836395 142.000244,417.669098 142.000031,417.250916 
	C147.269012,417.071198 152.538025,417.142426 157.903824,417.606201 
z"/>
<path fill="#EDEDEC" opacity="1.000000" stroke="none" 
	d="
M339.301392,327.927917 
	C338.878204,325.959137 338.835999,323.911163 338.859375,321.428345 
	C342.533051,322.907837 341.376373,325.348633 339.301392,327.927917 
z"/>
<path fill="#EDEDEC" opacity="1.000000" stroke="none" 
	d="
M347.045288,323.580536 
	C346.845734,322.466766 346.971252,321.388336 347.096771,320.309937 
	C347.665558,320.455963 348.234344,320.601990 348.803131,320.748016 
	C348.325531,321.703979 347.847961,322.659943 347.045288,323.580536 
z"/>
<path fill="#E0E0DF" opacity="1.000000" stroke="none" 
	d="
M421.051086,128.312317 
	C421.643555,128.451614 422.277191,128.909988 422.952362,129.687439 
	C422.360016,129.548157 421.726105,129.089767 421.051086,128.312317 
z"/>
<path fill="#EDEDEC" opacity="1.000000" stroke="none" 
	d="
M273.017029,358.922607 
	C273.439667,358.531342 273.890350,358.490448 274.675781,358.509033 
	C274.715424,359.193176 274.420288,359.817871 274.125153,360.442535 
	C273.765137,360.052673 273.405090,359.662811 273.017029,358.922607 
z"/>
<path fill="#F4F4F3" opacity="1.000000" stroke="none" 
	d="
M140.195572,180.706360 
	C146.846695,196.858475 153.497833,213.010590 160.207077,229.535736 
	C156.436081,228.612259 154.134064,230.711304 151.229782,232.972397 
	C146.770081,236.444427 141.533691,238.968048 136.459656,241.567734 
	C135.164673,242.231201 132.808014,242.315109 131.676788,241.560074 
	C125.009598,237.110123 119.031944,241.022354 112.907661,242.781357 
	C110.874794,243.365234 109.035141,244.601379 107.078865,245.476059 
	C100.459137,248.435822 96.204834,257.119171 96.996315,265.819855 
	C97.214722,268.220673 97.138046,270.663635 97.013687,273.077820 
	C96.375244,285.471802 95.747879,297.867126 94.976242,310.253235 
	C94.411293,319.321686 93.742798,328.387695 92.860588,337.429474 
	C92.652840,339.558533 91.398422,341.585541 90.625511,343.659485 
	C90.185356,343.642517 89.745201,343.625549 89.305046,343.608582 
	C88.543304,340.341156 87.781563,337.073700 87.339706,333.455109 
	C91.863892,336.129089 91.815742,332.666077 91.955276,330.124512 
	C92.396507,322.088104 92.664627,314.042236 92.999710,305.539429 
	C93.333038,296.052582 93.666367,287.026306 94.244095,277.812744 
	C94.325562,276.750336 94.162628,275.875153 93.999695,274.666687 
	C93.999695,273.888885 93.999695,273.444458 94.240631,272.828400 
	C94.654167,272.104126 94.826782,271.551483 94.988434,270.580017 
	C94.657097,266.878448 94.030334,263.590729 94.082542,260.313873 
	C94.179848,254.205917 94.672112,248.104263 95.220123,241.851471 
	C95.293488,241.135284 95.146744,240.567642 95.000000,239.545898 
	C95.000206,236.061401 95.000404,233.031006 95.365417,229.923553 
	C96.089546,229.523911 96.742348,229.220428 96.764786,228.875900 
	C97.198128,222.225189 100.674461,218.408279 107.103241,216.645447 
	C108.778946,216.185959 109.940849,213.852676 111.338737,212.380020 
	C111.003563,212.032089 110.668381,211.684158 110.333206,211.336227 
	C108.437691,211.869553 106.542175,212.402878 104.121201,213.084045 
	C107.257278,206.039978 111.802643,203.312424 119.659042,203.873322 
	C117.812119,207.081619 116.193230,209.893784 113.867561,213.933701 
	C119.491280,213.143707 124.282547,212.525894 128.502060,209.865952 
	C131.563599,207.935989 134.173080,205.296097 137.205276,203.310471 
	C140.500412,201.152664 141.775574,198.653305 139.844986,194.980347 
	C138.387436,192.207413 133.336517,190.478851 130.295120,191.436050 
	C127.142281,192.428329 123.887184,193.095718 120.449211,193.962585 
	C120.526131,192.844070 120.429306,192.337616 120.586708,192.239670 
	C126.347939,188.654480 129.782516,181.119537 138.149628,181.885666 
	C138.790222,181.944321 139.511688,181.120163 140.195572,180.706360 
z"/>
<path fill="#F6F6F5" opacity="1.000000" stroke="none" 
	d="
M93.999695,278.000000 
	C93.666367,287.026306 93.333038,296.052582 92.647049,305.609436 
	C90.862518,307.426636 89.430656,308.713318 87.998802,310.000000 
	C87.665565,306.300903 87.332321,302.601807 86.999084,298.451965 
	C86.999664,289.979340 87.000237,281.957489 87.396042,273.458801 
	C88.835121,272.127197 90.531143,271.437531 90.797386,270.385895 
	C91.521622,267.525146 91.678581,264.515259 91.992302,261.557220 
	C92.683441,255.040512 93.332726,248.519348 94.249321,242.000000 
	C94.666374,242.000000 94.833183,242.000000 95.000000,242.000000 
	C94.672112,248.104263 94.179848,254.205917 94.082542,260.313873 
	C94.030334,263.590729 94.657097,266.878448 94.699402,270.613403 
	C94.280785,271.710358 94.140244,272.355164 93.999695,273.000000 
	C93.999695,273.444458 93.999695,273.888885 93.755417,274.853973 
	C93.673988,276.249725 93.836838,277.124878 93.999695,278.000000 
z"/>
<path fill="#EDEDEC" opacity="1.000000" stroke="none" 
	d="
M107.013290,313.998108 
	C112.265396,308.412506 117.601852,313.390167 122.732651,313.376801 
	C122.895912,313.376343 123.682457,316.220428 123.133026,316.938049 
	C119.202003,322.072205 111.791626,322.535339 106.662590,318.425232 
	C104.606026,316.777252 104.737602,315.580444 107.013290,313.998108 
z"/>
<path fill="#F4F5F4" opacity="1.000000" stroke="none" 
	d="
M87.834480,310.375122 
	C89.430656,308.713318 90.862518,307.426636 92.647041,306.069977 
	C92.664627,314.042236 92.396507,322.088104 91.955276,330.124512 
	C91.815742,332.666077 91.863892,336.129089 87.330948,333.051910 
	C87.224907,325.583344 87.447533,318.166809 87.834480,310.375122 
z"/>
<path fill="#EDEDEC" opacity="1.000000" stroke="none" 
	d="
M177.003693,289.210083 
	C178.365036,285.754608 178.828995,285.845276 183.137222,290.479858 
	C181.472229,291.309906 179.984695,292.051514 178.497162,292.793091 
	C177.998978,291.725677 177.500824,290.658264 177.003693,289.210083 
z"/>
<path fill="#EDEDEC" opacity="1.000000" stroke="none" 
	d="
M163.046570,302.996033 
	C162.386063,303.731873 161.412521,304.247131 160.114105,304.836792 
	C159.487320,303.387512 159.185440,301.863831 158.883575,300.340149 
	C160.166901,301.151886 161.450226,301.963623 163.046570,302.996033 
z"/>
<path fill="#EDEDEC" opacity="1.000000" stroke="none" 
	d="
M149.663345,288.887390 
	C148.370422,288.819611 147.442459,288.688019 146.514496,288.556458 
	C146.433395,288.052917 146.352280,287.549377 146.271164,287.045837 
	C147.848938,286.800507 149.426697,286.555145 151.004456,286.309784 
	C150.679077,287.147736 150.353699,287.985657 149.663345,288.887390 
z"/>
<path fill="#EDEDEC" opacity="1.000000" stroke="none" 
	d="
M195.101410,288.241638 
	C194.608017,289.011993 194.056030,289.403320 193.246262,289.822754 
	C192.778854,288.761871 192.569260,287.672913 192.359650,286.583984 
	C192.613907,286.386841 192.868164,286.189697 193.122421,285.992554 
	C193.762558,286.615936 194.402695,287.239319 195.101410,288.241638 
z"/>
<path fill="#EDEDEC" opacity="1.000000" stroke="none" 
	d="
M256.337158,206.001648 
	C256.321777,205.506470 256.638641,205.010925 256.955505,204.515381 
	C257.286621,204.817001 257.617737,205.118622 257.973724,205.710327 
	C257.555511,206.000702 257.112488,206.001007 256.337158,206.001648 
z"/>
<path fill="#EDEDEC" opacity="1.000000" stroke="none" 
	d="
M177.865631,296.844421 
	C177.548767,297.367523 177.064835,297.658264 176.289825,297.957214 
	C176.565369,297.514313 177.131973,297.063202 177.865631,296.844421 
z"/>
<path fill="#F4F5F4" opacity="1.000000" stroke="none" 
	d="
M140.155792,180.346573 
	C139.511688,181.120163 138.790222,181.944321 138.149628,181.885666 
	C129.782516,181.119537 126.347939,188.654480 120.586708,192.239670 
	C120.429306,192.337616 120.526131,192.844070 120.449211,193.962585 
	C123.887184,193.095718 127.142281,192.428329 130.295120,191.436050 
	C133.336517,190.478851 138.387436,192.207413 139.844986,194.980347 
	C141.775574,198.653305 140.500412,201.152664 137.205276,203.310471 
	C134.173080,205.296097 131.563599,207.935989 128.502060,209.865952 
	C124.282547,212.525894 119.491280,213.143707 113.867561,213.933701 
	C116.193230,209.893784 117.812119,207.081619 119.659042,203.873322 
	C111.802643,203.312424 107.257278,206.039978 104.121201,213.084045 
	C106.542175,212.402878 108.437691,211.869553 110.333206,211.336227 
	C110.668381,211.684158 111.003563,212.032089 111.338737,212.380020 
	C109.940849,213.852676 108.778946,216.185959 107.103241,216.645447 
	C100.674461,218.408279 97.198128,222.225189 96.764786,228.875900 
	C96.742348,229.220428 96.089546,229.523911 95.365227,229.590012 
	C94.999947,228.888809 94.999672,228.444107 94.992462,227.615280 
	C94.657433,225.487656 94.329330,223.744125 94.393784,221.903839 
	C94.857872,216.538040 94.929382,211.269012 95.000778,205.625061 
	C95.000748,204.500290 95.000832,203.750458 95.000916,203.000610 
	C95.667198,201.535645 96.836754,200.097855 96.917549,198.601273 
	C97.417091,189.348694 97.662933,180.082581 98.012848,170.821686 
	C98.116524,168.077805 99.114174,166.765869 102.202705,165.779922 
	C107.294594,164.154449 111.971703,161.192673 116.767448,158.686584 
	C121.827759,156.042206 126.813026,153.254562 131.853271,150.571182 
	C132.867630,150.031158 134.190125,149.918304 135.016479,149.200745 
	C141.588547,143.493881 147.567169,136.925842 154.743271,132.146667 
	C160.851913,128.078430 164.601974,120.653488 172.722977,119.442413 
	C173.679886,119.299721 174.510544,118.012337 175.310898,117.171066 
	C178.361435,113.964600 181.098938,111.443474 185.673386,115.621674 
	C188.651886,118.342171 191.583359,114.721230 194.482864,113.709190 
	C193.786102,112.250061 193.418579,109.993263 192.308655,109.535149 
	C190.942917,108.971443 188.960815,110.110062 187.240082,110.132896 
	C185.803940,110.151947 183.738876,110.079659 183.098007,109.206718 
	C182.477081,108.360977 182.779892,105.756760 183.605377,105.110268 
	C187.934067,101.720154 191.444138,96.110527 198.615631,99.506676 
	C200.353348,100.329597 203.094162,99.091995 205.361786,98.727600 
	C212.865128,97.521835 220.354843,96.226257 227.873581,95.127945 
	C228.786835,94.994537 229.845062,95.853424 230.526978,96.626884 
	C228.462189,97.735237 226.338165,98.074829 225.034500,99.292625 
	C222.915466,101.272049 220.109589,104.121246 223.024384,106.797180 
	C224.249649,107.922050 227.892685,106.396896 230.439865,106.104980 
	C231.810608,105.947891 233.284073,105.478569 234.543472,105.802406 
	C237.442352,106.547829 240.131393,107.900917 242.804214,104.998795 
	C243.354446,104.401360 245.403534,105.184357 246.761765,105.331078 
	C246.975754,105.901558 247.189743,106.472046 247.403732,107.042526 
	C243.179062,111.068138 238.858658,115.000031 234.778610,119.167229 
	C233.227722,120.751244 231.999435,122.765999 231.033417,124.780693 
	C229.602020,127.765900 228.535217,130.925919 227.168060,134.377991 
	C225.080688,132.821732 223.960587,131.986618 221.912750,130.459839 
	C221.871368,134.892929 218.283264,137.579865 220.635773,141.991440 
	C221.967621,144.488968 221.207809,147.448883 217.805695,148.935684 
	C215.624283,149.889008 213.753998,151.536087 211.692749,152.787338 
	C209.336441,154.217758 207.067871,156.052322 204.496231,156.800079 
	C201.550934,157.656494 199.457169,158.641754 198.392761,161.809677 
	C197.975937,163.050262 195.741318,164.691422 194.615845,164.499619 
	C190.681335,163.829193 186.869553,162.438461 182.931732,161.298370 
	C181.605423,159.586655 180.000214,157.152206 177.942932,155.192322 
	C177.569885,154.836929 174.116119,156.557663 174.173920,157.095306 
	C174.553833,160.628677 175.506760,164.100433 176.272720,167.592300 
	C176.636658,167.477371 177.000580,167.362442 177.364517,167.247513 
	C176.437515,169.150162 175.510513,171.052795 174.583527,172.955444 
	C172.795822,168.880936 171.096222,164.763947 169.165741,160.758240 
	C168.599564,159.583435 167.392319,157.867081 166.454239,157.851151 
	C154.741058,157.652237 143.023346,157.720901 131.222244,157.720901 
	C134.272034,165.356186 137.194016,172.671478 140.155792,180.346573 
M103.905792,202.392441 
	C104.076508,201.827194 104.247231,201.261963 104.417938,200.696716 
	C103.852959,200.794647 103.287987,200.892578 102.723007,200.990509 
	C102.943703,201.545364 103.164398,202.100204 103.905792,202.392441 
z"/>
<path fill="#F4F4F3" opacity="1.000000" stroke="none" 
	d="
M174.669647,173.263367 
	C175.510513,171.052795 176.437515,169.150162 177.364517,167.247513 
	C177.000580,167.362442 176.636658,167.477371 176.272720,167.592300 
	C175.506760,164.100433 174.553833,160.628677 174.173920,157.095306 
	C174.116119,156.557663 177.569885,154.836929 177.942932,155.192322 
	C180.000214,157.152206 181.605423,159.586655 182.931732,161.298370 
	C186.869553,162.438461 190.681335,163.829193 194.615845,164.499619 
	C195.741318,164.691422 197.975937,163.050262 198.392761,161.809677 
	C199.457169,158.641754 201.550934,157.656494 204.496231,156.800079 
	C207.067871,156.052322 209.336441,154.217758 211.692749,152.787338 
	C213.753998,151.536087 215.624283,149.889008 217.805695,148.935684 
	C221.207809,147.448883 221.967621,144.488968 220.635773,141.991440 
	C218.283264,137.579865 221.871368,134.892929 221.912750,130.459839 
	C223.960587,131.986618 225.080688,132.821732 227.168060,134.377991 
	C228.535217,130.925919 229.602020,127.765900 231.033417,124.780693 
	C231.999435,122.765999 233.227722,120.751244 234.778610,119.167229 
	C238.858658,115.000031 243.179062,111.068138 247.403732,107.042526 
	C247.189743,106.472046 246.975754,105.901558 246.761765,105.331078 
	C245.403534,105.184357 243.354446,104.401360 242.804214,104.998795 
	C240.131393,107.900917 237.442352,106.547829 234.543472,105.802406 
	C233.284073,105.478569 231.810608,105.947891 230.439865,106.104980 
	C227.892685,106.396896 224.249649,107.922050 223.024384,106.797180 
	C220.109589,104.121246 222.915466,101.272049 225.034500,99.292625 
	C226.338165,98.074829 228.462189,97.735237 230.608948,97.000519 
	C232.741852,96.666893 234.483719,96.334099 236.691986,96.371307 
	C243.341782,100.183334 250.426712,99.871590 254.000000,96.000282 
	C254.444443,96.000237 254.888901,96.000191 255.854004,96.244492 
	C257.249786,96.325806 258.124878,96.162781 259.000000,95.999748 
	C260.388885,95.999741 261.777802,95.999733 264.052002,95.999832 
	C270.742218,95.999954 276.550171,96.112320 282.350861,95.955757 
	C285.573486,95.868774 288.784027,95.333130 292.000000,94.999695 
	C292.444458,94.999695 292.888885,94.999695 293.666687,94.999695 
	C294.552307,95.172607 295.104645,95.345512 295.828491,95.759216 
	C290.662872,96.666679 285.324585,97.323921 279.989227,98.004616 
	C277.822479,98.281052 275.662201,98.608498 274.524841,98.768456 
	C275.288544,103.668518 276.394531,107.710487 276.331024,111.734009 
	C276.302246,113.557457 274.319366,115.893944 272.589478,117.048508 
	C266.488525,121.120323 259.737305,124.300140 253.992432,128.790253 
	C250.872971,131.228378 248.553741,134.676117 245.073425,137.091553 
	C243.744873,138.013580 245.049210,142.507095 244.835220,145.348999 
	C244.724854,146.814896 244.354492,148.905716 243.351578,149.554138 
	C237.343948,153.438354 231.028732,156.844696 224.992676,160.687744 
	C219.774338,164.010178 213.867874,166.639694 211.120529,172.842316 
	C209.744278,175.949493 208.508530,179.155853 206.769623,182.053558 
	C205.421829,184.299484 203.671921,186.505508 201.603745,188.073914 
	C197.825912,190.938873 193.542572,193.136642 189.759491,195.995651 
	C188.358307,197.054565 187.771759,199.191437 186.473007,200.913254 
	C182.340134,191.850311 178.547943,182.710800 174.669647,173.263367 
M244.957001,120.628349 
	C243.668106,123.273766 242.926956,125.817833 247.006195,128.374725 
	C247.758728,125.828285 248.727173,123.777550 248.899536,121.661957 
	C249.121887,118.932793 247.628159,118.500725 244.957001,120.628349 
M267.936523,102.684471 
	C266.016663,97.920044 264.774780,100.876892 263.424377,102.598030 
	C263.491730,103.163811 263.559082,103.729584 263.626434,104.295364 
	C265.055389,103.993889 266.484314,103.692413 267.936523,102.684471 
M238.806000,122.412010 
	C238.801605,122.792725 238.797195,123.173439 238.792801,123.554161 
	C238.950760,123.555832 239.246017,123.568230 239.246857,123.557632 
	C239.276428,123.178810 239.278473,122.797836 238.806000,122.412010 
z"/>
<path fill="#F9F9F8" opacity="1.000000" stroke="none" 
	d="
M94.001221,222.000610 
	C94.329330,223.744125 94.657433,225.487656 94.603600,227.709839 
	C94.147461,232.125687 94.073273,236.062836 93.999245,240.333328 
	C93.999298,241.111099 93.999191,241.555557 93.999084,242.000000 
	C93.332726,248.519348 92.683441,255.040512 91.992302,261.557220 
	C91.678581,264.515259 91.521622,267.525146 90.797386,270.385895 
	C90.531143,271.437531 88.835121,272.127197 87.396545,272.990356 
	C87.001373,256.311127 87.000923,239.623489 87.371735,222.509613 
	C90.026764,223.051590 91.139061,222.517151 91.026253,219.817657 
	C90.861679,215.879257 90.675514,211.921021 90.884735,207.991791 
	C91.412483,198.080032 93.646126,187.993759 92.438728,178.321625 
	C90.904251,166.029312 93.270355,154.410645 95.804802,142.959320 
	C100.712700,120.784111 114.116096,105.047646 135.869812,97.190315 
	C146.129822,93.484459 156.639526,91.759109 167.580704,93.839241 
	C169.980255,94.295448 172.565735,94.013359 175.040543,93.791550 
	C184.744583,92.921776 194.426666,91.777184 204.141174,91.066269 
	C209.273880,90.690643 214.517517,91.474556 219.594696,90.825096 
	C222.839844,90.409981 225.872223,88.331718 229.000000,86.999084 
	C230.730560,86.666054 232.465500,86.023193 234.190994,86.047707 
	C252.299179,86.304993 270.407745,86.594963 288.511566,87.058304 
	C292.766968,87.167221 297.004883,87.961197 301.354919,89.578415 
	C298.982880,89.729782 296.611969,89.903473 294.238556,90.028214 
	C287.861847,90.363350 281.478271,90.591461 275.108063,91.020172 
	C265.367523,91.675697 255.641632,92.558563 245.897614,93.148048 
	C242.135239,93.375656 238.321274,92.790649 234.563782,93.051186 
	C223.020584,93.851555 211.498749,94.957481 199.957062,95.783188 
	C195.733795,96.085335 191.476578,95.880157 187.237564,96.001488 
	C176.622055,96.305351 166.003815,97.024628 155.394760,96.898094 
	C144.862350,96.772484 136.554504,102.436714 126.782143,106.020370 
	C130.841827,111.017509 127.576660,113.010017 124.038010,114.983780 
	C118.592323,118.021271 112.287773,120.234322 108.031219,124.483635 
	C103.919769,128.588104 100.282112,134.555557 99.359360,140.183868 
	C97.279686,152.868851 96.910774,165.843536 96.035271,178.713242 
	C95.506638,186.484177 95.333237,194.279266 95.000565,202.532059 
	C95.000832,203.750458 95.000748,204.500290 94.710968,205.923920 
	C94.281250,211.732010 94.141243,216.866318 94.001221,222.000610 
z"/>
<path fill="#FCFCFB" opacity="1.000000" stroke="none" 
	d="
M228.630432,86.956360 
	C225.872223,88.331718 222.839844,90.409981 219.594696,90.825096 
	C214.517517,91.474556 209.273880,90.690643 204.141174,91.066269 
	C194.426666,91.777184 184.744583,92.921776 175.040543,93.791550 
	C172.565735,94.013359 169.980255,94.295448 167.580704,93.839241 
	C156.639526,91.759109 146.129822,93.484459 135.869812,97.190315 
	C114.116096,105.047646 100.712700,120.784111 95.804802,142.959320 
	C93.270355,154.410645 90.904251,166.029312 92.438728,178.321625 
	C93.646126,187.993759 91.412483,198.080032 90.884735,207.991791 
	C90.675514,211.921021 90.861679,215.879257 91.026253,219.817657 
	C91.139061,222.517151 90.026764,223.051590 87.372574,222.040863 
	C87.335121,193.962189 87.668098,165.926056 88.002197,137.444580 
	C89.069733,134.268295 90.154106,131.544174 91.199768,128.805283 
	C99.609787,106.776695 115.250397,92.495323 138.375900,88.323074 
	C150.529129,86.130424 163.265823,87.128418 175.741791,86.785477 
	C182.292664,86.605408 188.849472,86.640549 195.701797,86.289513 
	C202.356659,86.333092 208.713318,86.665657 215.951233,86.998795 
	C218.222076,86.998863 219.611649,86.998367 221.001221,86.997864 
	C223.421097,86.969788 225.840988,86.941704 228.630432,86.956360 
z"/>
<path fill="#F4F5F4" opacity="1.000000" stroke="none" 
	d="
M291.700012,94.709656 
	C288.784027,95.333130 285.573486,95.868774 282.350861,95.955757 
	C276.550171,96.112320 270.742218,95.999954 264.468658,95.999817 
	C264.781708,95.340103 265.562866,94.109528 266.345245,94.108742 
	C274.696716,94.100327 283.048401,94.286728 291.700012,94.709656 
z"/>
<path fill="#F4F5F4" opacity="1.000000" stroke="none" 
	d="
M253.532394,96.000145 
	C250.426712,99.871590 243.341782,100.183334 237.079193,96.370811 
	C242.354935,96.000206 247.709854,96.000107 253.532394,96.000145 
z"/>
<path fill="#F9F9F8" opacity="1.000000" stroke="none" 
	d="
M220.928772,86.640961 
	C219.611649,86.998367 218.222076,86.998863 216.415604,86.998459 
	C217.207047,83.962517 218.942978,84.519249 220.928772,86.640961 
z"/>
<path fill="#F4F5F4" opacity="1.000000" stroke="none" 
	d="
M258.812683,95.755470 
	C258.124878,96.162781 257.249786,96.325806 256.187317,96.244553 
	C256.875122,95.837242 257.750214,95.674217 258.812683,95.755470 
z"/>
<path fill="#E0E0DF" opacity="1.000000" stroke="none" 
	d="
M186.997971,422.995300 
	C190.237595,422.040344 193.464447,420.331329 196.719284,420.276215 
	C205.407227,420.129211 214.106567,420.720123 222.803635,420.920135 
	C223.462997,420.935333 224.140060,420.180603 224.904449,419.393066 
	C225.444443,419.002014 225.888901,419.001617 226.865936,419.343933 
	C229.094360,420.124420 230.784836,420.914856 232.486877,420.940521 
	C241.066666,421.069946 249.649460,420.999664 258.231201,421.000092 
	C267.322174,421.000549 276.414368,421.099579 285.503845,420.982849 
	C306.735779,420.710266 327.965973,420.302765 349.197693,420.011383 
	C362.601685,419.827454 375.769196,418.249420 387.750305,411.830872 
	C395.177124,407.852173 401.944489,402.804169 405.998779,394.998871 
	C405.998779,394.998871 406.000000,394.500061 406.370300,394.242065 
	C407.920441,392.789581 409.521210,391.797791 410.210297,390.366882 
	C414.060883,382.371185 413.985565,382.334900 421.989014,383.993896 
	C420.994080,386.079651 419.999146,388.165405 418.995819,390.612732 
	C417.833801,392.850159 416.680176,394.725983 414.892029,396.804932 
	C411.320709,398.767303 407.701294,399.932220 405.563934,402.387360 
	C395.667999,413.754272 382.734833,419.601501 368.468903,421.753815 
	C356.159332,423.610931 343.530273,423.845642 331.038025,423.908020 
	C284.962891,424.138214 238.885864,424.011230 192.809631,423.956299 
	C190.872025,423.953979 188.935181,423.329773 186.997971,422.995300 
z"/>
<path fill="#E4E4E3" opacity="1.000000" stroke="none" 
	d="
M421.992432,383.577148 
	C413.985565,382.334900 414.060883,382.371185 410.210297,390.366882 
	C409.521210,391.797791 407.920441,392.789581 406.370911,393.992676 
	C407.641174,390.593292 409.319366,387.203156 410.913666,383.773956 
	C415.195251,374.564453 418.248230,365.064301 418.073914,354.728729 
	C418.044861,353.005707 418.866791,351.268341 419.295502,349.537598 
	C419.793030,349.514984 420.290588,349.492371 420.788116,349.469727 
	C421.021942,352.322784 421.324036,355.172272 421.472168,358.029785 
	C421.654816,361.553925 420.545563,365.401215 424.588623,367.981262 
	C423.988617,373.050201 422.992218,378.105316 421.992432,383.577148 
z"/>
<path fill="#D9D9D8" opacity="1.000000" stroke="none" 
	d="
M186.665070,422.996521 
	C188.935181,423.329773 190.872025,423.953979 192.809631,423.956299 
	C238.885864,424.011230 284.962891,424.138214 331.038025,423.908020 
	C343.530273,423.845642 356.159332,423.610931 368.468903,421.753815 
	C382.734833,419.601501 395.667999,413.754272 405.563934,402.387360 
	C407.701294,399.932220 411.320709,398.767303 414.625916,397.002075 
	C411.537292,405.453735 404.224091,410.277313 397.260284,415.238159 
	C389.073212,421.070435 379.208405,423.096710 369.736572,425.705170 
	C365.190887,426.957062 360.206665,426.940704 355.420410,426.945923 
	C289.815918,427.017456 224.210815,427.113678 158.607346,426.845184 
	C149.926926,426.809662 141.231018,424.945984 132.595093,423.592041 
	C130.430313,423.252686 128.470367,421.606812 126.207848,420.281952 
	C128.142792,420.070007 130.331848,419.883240 132.419891,420.258545 
	C136.596176,421.009125 140.685486,422.664612 144.866867,422.886169 
	C157.082031,423.533447 169.324554,423.670776 181.557343,423.966919 
	C182.524185,423.990356 183.498718,423.696533 184.735092,423.273254 
	C185.444382,422.996826 185.888275,422.997284 186.665070,422.996521 
z"/>
<path fill="#F4F4F3" opacity="1.000000" stroke="none" 
	d="
M371.666870,88.999847 
	C372.863159,90.308327 373.726318,91.616646 375.170410,93.805534 
	C364.432892,94.820732 354.358185,97.158325 344.179443,92.324936 
	C350.804413,92.332840 357.609589,92.867966 364.412720,92.843246 
	C365.938812,92.837700 367.457794,90.873291 368.990021,89.405487 
	C369.166870,89.000122 369.333740,88.999947 369.750916,88.999435 
	C370.445404,88.999290 370.889557,88.999489 371.666870,88.999847 
z"/>
<path fill="#F4F4F3" opacity="1.000000" stroke="none" 
	d="
M327.700073,94.709900 
	C322.880737,95.640602 317.775238,96.600815 312.637909,96.822105 
	C308.419983,97.003807 304.164246,96.307236 299.462646,95.999832 
	C299.782318,95.340096 300.564209,94.109055 301.346985,94.108498 
	C310.031311,94.102356 318.715729,94.286835 327.700073,94.709900 
z"/>
<path fill="#F4F4F3" opacity="1.000000" stroke="none" 
	d="
M339.773224,91.752258 
	C336.939392,92.999924 333.878754,93.999840 330.409058,94.999725 
	C333.182159,93.834633 336.364288,92.669579 339.773224,91.752258 
z"/>
<path fill="#F0F0EF" opacity="1.000000" stroke="none" 
	d="
M339.803040,107.682610 
	C334.062836,108.472183 328.290131,108.299850 324.241364,113.451233 
	C323.025330,114.998421 321.223511,116.085167 319.535400,117.513725 
	C315.861786,109.760651 319.293640,107.995392 325.578979,102.269363 
	C326.173645,101.727592 327.048828,101.502701 327.770416,101.089912 
	C336.027435,96.366547 338.896088,97.831451 339.803040,107.682610 
z"/>
<path fill="#F0F0EF" opacity="1.000000" stroke="none" 
	d="
M313.655823,127.532898 
	C311.844788,126.372055 310.351929,125.061081 308.859100,123.750107 
	C308.980804,123.183952 309.102509,122.617798 309.224213,122.051643 
	C311.976990,121.677643 314.729767,121.303650 317.482544,120.929649 
	C317.751953,121.454460 318.021393,121.979271 318.290833,122.504089 
	C316.851898,124.130318 315.412964,125.756546 313.655823,127.532898 
z"/>
<path fill="#E4E4E3" opacity="1.000000" stroke="none" 
	d="
M405.654724,395.036194 
	C401.944489,402.804169 395.177124,407.852173 387.750305,411.830872 
	C375.769196,418.249420 362.601685,419.827454 349.197693,420.011383 
	C327.965973,420.302765 306.735779,420.710266 285.503845,420.982849 
	C276.414368,421.099579 267.322174,421.000549 258.231201,421.000092 
	C249.649460,420.999664 241.066666,421.069946 232.486877,420.940521 
	C230.784836,420.914856 229.094360,420.124420 227.199280,419.343933 
	C233.052063,418.739288 239.102600,418.313812 245.156601,418.256683 
	C252.754822,418.184937 260.356537,418.383148 267.955414,418.532471 
	C270.567230,418.583801 273.180359,419.034790 275.783691,418.963898 
	C284.566498,418.724762 293.343170,418.131714 302.125854,418.044189 
	C317.853790,417.887421 333.594543,418.345001 349.310486,417.883362 
	C360.499329,417.554657 372.009521,417.357849 382.185699,411.923737 
	C388.391510,408.609802 393.891876,403.959320 399.641968,399.815948 
	C401.635559,398.379456 403.426971,396.662415 405.654724,395.036194 
z"/>
<path fill="#F6F6F5" opacity="1.000000" stroke="none" 
	d="
M93.999084,240.000000 
	C94.073273,236.062836 94.147461,232.125687 94.610519,228.093964 
	C94.999672,228.444107 94.999947,228.888809 95.000420,229.667068 
	C95.000404,233.031006 95.000206,236.061401 94.749771,239.545898 
	C94.332726,240.000000 94.165901,240.000000 93.999084,240.000000 
z"/>
<path fill="#F4F5F4" opacity="1.000000" stroke="none" 
	d="
M94.244095,277.812744 
	C93.836838,277.124878 93.673988,276.249725 93.755417,275.187317 
	C94.162628,275.875153 94.325562,276.750336 94.244095,277.812744 
z"/>
<path fill="#F4F5F4" opacity="1.000000" stroke="none" 
	d="
M94.240631,272.828400 
	C94.140244,272.355164 94.280785,271.710358 94.710358,271.032166 
	C94.826782,271.551483 94.654167,272.104126 94.240631,272.828400 
z"/>
<path fill="#F4F5F4" opacity="1.000000" stroke="none" 
	d="
M93.999245,240.333328 
	C94.165901,240.000000 94.332726,240.000000 94.749771,240.000000 
	C95.146744,240.567642 95.293488,241.135284 95.220123,241.851471 
	C94.833183,242.000000 94.666374,242.000000 94.249321,242.000000 
	C93.999191,241.555557 93.999298,241.111099 93.999245,240.333328 
z"/>
<path fill="#F6F6F5" opacity="1.000000" stroke="none" 
	d="
M94.393791,221.903839 
	C94.141243,216.866318 94.281250,211.732010 94.711075,206.298859 
	C94.929382,211.269012 94.857872,216.538040 94.393791,221.903839 
z"/>
<path fill="#F4F4F3" opacity="1.000000" stroke="none" 
	d="
M103.645447,202.523743 
	C103.164398,202.100204 102.943703,201.545364 102.723007,200.990509 
	C103.287987,200.892578 103.852959,200.794647 104.417938,200.696716 
	C104.247231,201.261963 104.076508,201.827194 103.645447,202.523743 
z"/>
<path fill="#F2F2F2" opacity="1.000000" stroke="none" 
	d="
M245.228943,120.347794 
	C247.628159,118.500725 249.121887,118.932793 248.899536,121.661957 
	C248.727173,123.777550 247.758728,125.828285 247.006195,128.374725 
	C242.926956,125.817833 243.668106,123.273766 245.228943,120.347794 
z"/>
<path fill="#F2F2F2" opacity="1.000000" stroke="none" 
	d="
M267.924896,103.037704 
	C266.484314,103.692413 265.055389,103.993889 263.626434,104.295364 
	C263.559082,103.729584 263.491730,103.163811 263.424377,102.598030 
	C264.774780,100.876892 266.016663,97.920044 267.924896,103.037704 
z"/>
<path fill="#F2F2F2" opacity="1.000000" stroke="none" 
	d="
M239.045166,122.414589 
	C239.278473,122.797836 239.276428,123.178810 239.246857,123.557632 
	C239.246017,123.568230 238.950760,123.555832 238.792786,123.554153 
	C238.797195,123.173439 238.801605,122.792725 239.045166,122.414589 
z"/>
</svg>